<svg width="985" height="854" viewBox="0 0 985 854" fill="none" xmlns="http://www.w3.org/2000/svg">
<path d="M0 239C0 230.163 7.16344 223 16 223H969C977.837 223 985 230.163 985 239V440C985 448.837 977.837 456 969 456H16C7.16343 456 0 448.837 0 440V239Z" fill="#D9D9D9"/>
<path d="M352 631H629V717C629 725.837 621.837 733 613 733H368C359.163 733 352 725.837 352 717V631Z" fill="#D9D9D9"/>
<path d="M370 717H609V809C609 817.837 601.837 825 593 825H386C377.163 825 370 817.837 370 809V717Z" fill="#D9D9D9"/>
<path d="M405 796H576V838C576 846.837 568.837 854 560 854H421C412.163 854 405 846.837 405 838V796Z" fill="#D9D9D9"/>
<path d="M829 339.5C829 527.001 677.001 679 489.5 679C301.999 679 150 527.001 150 339.5C150 151.999 301.999 0 489.5 0C677.001 0 829 151.999 829 339.5Z" fill="#D9D9D9"/>
</svg>
