<svg width="959" height="823" viewBox="0 0 959 823" fill="none" xmlns="http://www.w3.org/2000/svg">
<g clip-path="url(#clip0_474_41)">

<path d="M87.7356 372.229C80.5986 362.149 73.7209 352.331 66.1595 341.537C66.1595 365.573 66.1595 388.545 66.1595 411.755C49.2224 411.755 32.8278 411.755 16.0018 411.755C16.0018 410.11 16.0018 408.655 16.0018 407.2C16.0018 349.043 16.0588 290.886 15.8956 232.729C15.8823 227.986 17.5012 227.446 21.8215 226.771C33.1104 225.006 39.5242 230.038 45.726 238.918C66.1898 268.219 87.4535 296.962 108.445 325.894C110.355 328.527 112.514 330.979 114.887 333.924C120.223 326.605 125.61 319.178 131.036 311.778C149.687 286.34 168.768 261.201 186.739 235.292C191.708 228.127 196.901 226.079 204.632 226.954C207.227 227.248 209.884 227.001 212.753 227.001C212.753 288.768 212.753 350.157 212.753 411.773C196.64 411.773 180.695 411.773 164.275 411.773C164.275 388.507 164.275 365.127 164.275 340.297C147.451 364.007 131.47 386.529 114.848 409.954C105.681 397.165 96.838 384.827 87.7356 372.229Z" fill="#00D2FF"/>
<path d="M436.004 336.035C434.005 351.585 428.123 365.15 419.128 377.282C405.044 396.276 386.232 408.295 363.321 414.004C351.551 416.937 339.524 417.926 327.56 416.869C299.637 414.401 275.591 403.309 257.355 381.656C245.873 368.022 239.284 352.012 236.869 334.111C234.23 314.542 236.999 295.883 245.456 278.352C254.085 260.463 267.313 246.411 285.063 237.006C297.65 230.337 310.898 226.412 325.226 224.78C352.339 221.693 376.894 228.186 398.734 243.587C418.83 257.757 431.21 277.918 435.715 302.11C437.541 311.919 436.676 322.234 436.938 332.322C436.966 333.4 436.334 334.496 436.004 336.035ZM298.03 288.452C286.684 301.49 283.585 316.503 287.588 333.087C289.731 341.965 294.277 349.823 300.766 356.003C308.506 363.373 317.983 367.549 328.868 369.199C345.98 371.791 360.57 366.849 372.817 355.46C383.99 345.07 388.19 331.513 386.995 316.33C385.877 302.131 379.888 290.498 368.461 281.866C352.42 269.75 334.907 267.967 316.403 275.071C309.41 277.755 303.248 281.908 298.03 288.452Z" fill="#00D2FF"/>
<path d="M538.597 229.027C544.723 230.378 550.56 231.213 556.015 233.133C572.155 238.812 585.417 248.551 592.568 264.384C602.136 285.568 600.175 306.064 585.035 324.233C580.131 330.119 573.71 334.74 567.763 340.14C583.168 363.254 599.116 387.181 615.442 411.676C613.478 411.81 612.091 411.985 610.704 411.987C594.373 412.006 578.039 411.832 561.713 412.128C558.073 412.194 556.567 410.561 554.973 407.962C541.931 386.7 528.824 365.477 515.75 344.234C514.145 341.626 512.617 338.97 510.299 335.065C510.299 361.428 510.299 386.393 510.299 411.677C493.383 411.677 476.987 411.677 460.295 411.677C460.295 350.992 460.295 290.268 460.295 229.006C486.263 229.006 512.198 229.006 538.597 229.027ZM509.999 285.512C509.999 293.263 509.999 301.014 509.999 309C516.586 309 522.582 309.349 528.512 308.873C532.265 308.572 536.226 307.647 539.562 305.954C551.105 300.096 550.636 284.243 541.112 277.526C531.469 270.725 520.687 273.764 509.999 272.962C509.999 277.244 509.999 280.882 509.999 285.512Z" fill="#00D2FF"/>
<path d="M896.025 277.885C905.445 298.711 914.799 319.167 924.244 339.581C931.246 354.714 938.397 369.779 945.418 384.904C949.561 393.828 953.579 402.81 957.76 411.999C940.384 411.999 923.389 412.067 906.398 411.877C904.94 411.861 902.796 410.459 902.181 409.138C899.802 404.028 898.047 398.631 895.741 393.484C895.236 392.355 893.427 391.113 892.211 391.104C871.383 390.959 850.555 390.961 829.727 391.098C828.483 391.106 826.638 392.233 826.112 393.336C823.542 398.725 821.482 404.359 818.856 409.718C818.287 410.878 816.136 411.89 814.704 411.903C798.044 412.053 781.383 411.999 763.964 411.999C766.68 405.969 769.184 400.28 771.794 394.639C780.496 375.834 789.292 357.073 797.949 338.247C811.129 309.585 824.233 280.889 837.346 252.196C840.641 244.987 843.85 237.739 847.092 230.506C848.185 228.07 849.646 226.757 852.723 226.904C859.361 227.22 866.025 227.001 872.724 227.001C880.542 243.962 888.27 260.729 896.025 277.885ZM847.945 343.291C846.245 347.037 844.545 350.784 842.682 354.889C855.084 354.889 866.736 354.889 878.786 354.889C872.844 341.163 866.967 327.586 860.764 313.257C856.242 323.619 852.121 333.064 847.945 343.291Z" fill="#00D2FF"/>
<path d="M632.001 335C632.001 299.528 632.001 264.556 632.001 229.293C671.682 229.293 711.077 229.293 750.736 229.293C750.736 244.407 750.736 259.47 750.736 274.822C727.651 274.822 704.704 274.822 681.379 274.822C681.379 283.159 681.379 291.228 681.379 299.764C700.225 299.764 719.292 299.764 738.678 299.764C738.678 313.62 738.678 327.018 738.678 340.882C719.652 340.882 700.584 340.882 681.26 340.882C681.26 349.408 681.26 357.471 681.26 365.824C704.348 365.824 727.294 365.824 750.619 365.824C750.619 381.168 750.619 396.233 750.619 411.65C711.434 411.65 672.038 411.65 632.001 411.65C632.001 386.349 632.001 360.925 632.001 335Z" fill="#00D2FF"/>
<path d="M700.4 550.402C671.514 578.459 638.799 600.121 601.954 615.473C598.878 616.755 597.724 618.172 597.753 621.596C597.931 642.593 597.847 663.593 597.836 684.592C597.83 694.867 593.57 699.105 583.24 699.106C514.244 699.111 445.247 699.112 376.25 699.105C366.669 699.104 362.179 694.653 362.166 685.079C362.137 663.914 362.106 642.748 362.215 621.583C362.23 618.585 361.607 616.948 358.513 615.645C298.318 590.298 250.375 550.187 214.565 495.583C201.837 476.175 191.543 455.536 183.175 433.011C188.542 433.011 193.446 432.767 198.292 433.188C199.456 433.288 200.819 435.432 201.432 436.91C211.121 460.242 223.251 482.209 238.395 502.431C276.118 552.806 324.567 588.897 384.385 608.479C415.105 618.536 446.939 624.383 479.636 623.744C558.71 622.2 628.415 596.982 686.391 542.142C717.676 512.549 741.624 477.818 757.897 437.917C759.484 434.028 761.379 432.468 765.489 432.923C768.617 433.27 771.814 432.998 774.98 433.016C775.306 433.018 775.631 433.121 776.709 433.308C760 478.065 734.712 516.936 700.4 550.402ZM378.021 666.498C378.021 671.939 378.021 677.38 378.021 682.904C446.289 682.904 513.952 682.904 581.795 682.904C581.795 663.11 581.795 643.674 581.795 623.392C513.879 645.524 446.156 645.517 378.021 623.336C378.021 637.917 378.021 651.708 378.021 666.498Z" fill="#02AEFA"/>
<path d="M251.048 105.047C280.483 74.3946 314.24 50.4726 352.866 33.5774C400.568 12.7117 450.416 4.07555 502.389 7.84277C574.515 13.0707 637.457 40.0918 691.368 88.04C726.1 118.931 752.319 156.122 770.871 198.725C771.269 199.637 771.581 200.591 771.87 201.544C771.958 201.834 771.838 202.188 771.774 203.008C769.213 203.008 766.615 203.008 764.016 203.008C761.354 203.008 758.693 203.008 756.114 203.008C750.355 192.191 745.174 181.222 738.917 170.905C693.299 95.685 627.846 46.8542 541.565 29.4235C440.28 8.96156 350.563 34.8929 274.062 104.543C244.912 131.083 222.752 163.029 206.417 198.921C204.935 202.176 203.226 203.341 199.784 203.075C195.983 202.781 192.142 203.008 187.446 203.008C202.658 166.115 223.839 133.856 251.048 105.047Z" fill="#01AEFA"/>
<path d="M671.897 180.816C667.582 185.923 663.474 190.725 659.301 195.604C643.732 188.271 628.216 181.103 612.856 173.617C609.582 172.021 607.271 172.217 604.232 174.077C595.307 179.541 586.153 184.63 576.561 190.17C581.513 194.309 586.124 198.163 591.86 202.956C582.824 202.956 575.11 203.038 567.401 202.868C566.249 202.843 565.076 201.712 563.991 200.975C512.885 166.231 447.629 166.179 396.207 200.722C394.178 202.085 391.401 202.492 388.901 202.943C386.964 203.292 384.856 202.704 382.923 203.061C364.523 206.458 349.663 198.271 335.35 188.496C334.039 187.601 333.115 185.371 332.959 183.674C331.435 167.104 330.113 150.515 328.685 133.359C322.371 132.221 316.069 130.93 309.708 130.073C308.454 129.904 306.792 131.199 305.63 132.186C301.042 136.086 295.748 136.761 290.9 133.859C286.548 131.253 284.132 125.806 285.191 120.989C286.317 115.865 290.701 111.851 295.942 111.146C300.867 110.483 306.374 113.409 308.276 118.613C309.425 121.76 311.423 122.422 314.123 122.887C321.325 124.128 328.512 125.455 335.912 126.785C337.309 143.884 338.801 160.772 339.977 177.681C340.225 181.248 341.37 183.448 344.524 185.171C352.553 189.557 360.38 194.314 368.395 198.729C369.536 199.358 371.814 199.564 372.647 198.867C386.128 187.592 400.916 178.456 417.558 171.347C412.973 163.342 408.627 155.716 404.245 148.11C399.676 140.178 395.002 132.304 390.522 124.321C388.992 121.596 387.449 119.895 383.894 119.413C377.558 118.554 373.585 112.968 373.996 106.974C374.383 101.325 378.935 96.5381 384.465 95.9646C390.493 95.3395 395.908 98.6929 397.288 104.659C397.879 107.216 397.834 110.69 396.514 112.74C394.42 115.993 395.424 118.047 397.028 120.787C405.353 135.008 413.518 149.323 421.75 163.599C422.655 165.169 423.631 166.699 424.767 168.565C444.877 161.579 465.494 158.577 487.054 159.119C486.079 147.884 485.207 137.144 484.121 126.425C484.016 125.388 482.764 124.17 481.734 123.569C466.08 114.435 450.373 105.391 434.299 96.1063C436.247 88.705 438.436 81.0748 440.161 73.3413C440.571 71.5026 440.014 68.89 438.898 67.3716C435.283 62.4548 434.574 56.8923 437.59 52.0463C440.416 47.5042 445.833 45.3342 450.966 46.6884C456.353 48.1097 460.037 52.3436 460.46 57.5975C460.933 63.4762 457.659 68.1522 451.725 70.7324C450.343 71.3335 448.887 72.8459 448.413 74.2574C446.826 78.9821 445.753 83.8759 444.316 88.6548C443.508 91.3423 444.245 92.7885 446.76 94.2098C460.67 102.071 474.426 110.203 488.316 118.1C490.909 119.575 491.964 121.316 492.161 124.33C492.922 135.95 494.004 147.549 494.962 159.091C504.554 161.072 513.934 163.107 523.373 164.819C524.409 165.007 526.267 163.616 526.928 162.483C538.328 142.927 549.672 123.337 560.83 103.643C562.692 100.355 564.699 99.0398 568.613 99.0862C588.441 99.3214 608.274 99.1565 628.105 99.2366C631.087 99.2486 633.179 98.8531 635.015 95.8829C638.762 89.8206 647.086 88.9327 652.479 93.4717C657.42 97.63 657.928 105.71 653.551 110.516C648.72 115.818 640.582 116.05 636.009 110.386C633.572 107.369 631.041 106.812 627.569 106.834C608.905 106.953 590.239 106.837 571.575 106.978C569.895 106.991 567.403 107.77 566.671 109.01C555.267 128.344 544.09 147.813 533.031 166.956C543.395 172.044 553.756 176.567 563.501 182.162C568.081 184.792 571.152 184.709 575.439 182.037C585.04 176.052 595.012 170.664 604.765 164.917C607.08 163.552 608.917 163.247 611.562 164.527C626.667 171.834 641.906 178.867 657.3 186.088C661.495 181.133 665.666 176.389 669.567 171.432C670.271 170.538 670.189 168.702 669.916 167.419C668.641 161.434 670.465 156.305 675.083 153.523C679.716 150.733 685.513 151.141 689.527 154.54C693.637 158.02 694.978 163.692 692.851 168.605C690.67 173.642 685.585 176.985 679.92 175.814C675.263 174.851 674.405 178.498 671.897 180.816Z" fill="#02ACF8"/>
<path d="M540.201 459.333C553.987 453.093 566.241 445.195 577.474 435.623C579.178 434.171 581.797 433.246 584.058 433.104C589.696 432.75 595.372 432.988 601.841 433.981C594.979 440.477 588.116 446.972 580.948 453.758C591.334 459.755 601.622 465.809 612.067 471.578C613.294 472.256 615.59 471.806 617.047 471.134C633.319 463.629 649.524 455.977 665.96 448.265C671.151 454.346 676.219 460.52 681.604 466.404C682.782 467.692 685.114 468.62 686.872 468.555C693.048 468.329 697.777 470.631 700.016 475.595C702.313 480.687 701.085 486.646 697.008 490.187C693.038 493.636 686.935 494.246 682.569 491.631C677.64 488.678 675.758 483.647 676.871 477.358C677.146 475.807 677.013 473.661 676.127 472.518C672.361 467.659 668.24 463.075 663.886 457.965C652.191 463.461 640.504 468.968 628.803 474.445C623.693 476.837 618.498 481.115 613.445 480.967C608.604 480.826 603.89 476.075 599.133 473.326C591.64 468.996 584.219 464.534 576.617 460.404C575.192 459.63 572.564 459.384 571.34 460.187C557.595 469.204 542.863 476.046 527.222 481.006C526.959 481.09 526.763 481.384 526.108 481.95C540.048 485.7 553.633 489.542 567.331 492.924C571.397 493.928 573.333 495.613 574.375 499.804C578.307 515.621 582.766 531.306 586.917 547.069C587.604 549.681 588.525 551.276 591.484 552.118C596.259 553.476 598.786 557.205 598.854 562.245C598.917 566.803 595.646 570.849 591.134 572.168C586.65 573.478 581.773 571.79 579.307 567.898C576.6 563.628 577.024 559.52 579.802 555.297C580.795 553.787 581.436 551.386 581.009 549.704C577.119 534.385 572.889 519.152 568.93 503.85C568.131 500.762 566.752 499.304 563.489 498.482C547.36 494.414 531.336 489.934 515.244 485.717C513.215 485.186 510.98 485.068 508.881 485.244C499.765 486.012 490.645 486.812 481.572 487.959C479.673 488.199 477.246 489.518 476.288 491.087C470.649 500.32 465.282 509.724 460.072 519.207C459.272 520.663 459.075 523.136 459.751 524.612C467.229 540.953 474.934 557.191 482.844 574.024C477.089 578.919 471.091 584.113 464.978 589.165C462.916 590.87 461.77 592.298 462.483 595.409C463.684 600.643 460.265 606.027 455.189 608.308C450.388 610.466 444.774 609.208 441.079 605.149C437.508 601.226 436.843 595.314 439.461 590.761C442.095 586.177 447.588 583.306 452.606 584.934C456.139 586.08 458.138 584.938 460.491 582.795C464.533 579.114 468.786 575.665 473.19 571.915C465.784 556.21 458.56 540.706 451.126 525.303C449.814 522.587 449.856 520.582 451.408 517.986C457.274 508.173 462.887 498.208 468.766 488.002C460.01 486.526 451.821 485.409 443.758 483.701C437.752 482.428 431.839 480.596 426.024 478.604C423.394 477.703 421.899 478.072 420 480.082C405.591 495.329 391.051 510.452 376.537 525.599C375.296 526.895 373.946 528.085 372.404 529.556C359.885 517.591 347.641 505.889 335.078 493.882C332.158 496.94 329.255 499.671 326.783 502.748C325.973 503.756 325.939 505.712 326.142 507.151C326.948 512.86 324.809 517.875 320.233 520.366C315.745 522.808 309.949 522.06 306.309 518.569C302.518 514.933 301.568 509.002 304.025 504.308C306.53 499.523 311.121 497.566 317.094 498.17C318.723 498.335 320.848 497.568 322.128 496.493C326.704 492.651 331.014 488.492 335.752 484.153C347.416 495.363 359.721 507.188 372.266 519.244C386.58 504.282 400.595 489.631 415.044 474.527C393.216 464.724 374.328 451.502 358.696 433.384C367.656 434.484 376.501 430.468 385.528 437.66C432.491 475.082 484.239 481.711 540.201 459.333Z" fill="#02ACF8"/>
<path d="M557.999 729.348C500.73 729.349 443.961 729.383 387.192 729.247C384.496 729.241 379.888 728.254 379.481 726.798C378.419 723.003 379.034 718.679 379.391 714.601C379.458 713.835 381.349 712.917 382.533 712.634C384.119 712.256 385.836 712.374 387.497 712.374C449.094 712.365 510.691 712.366 572.288 712.368C580.599 712.368 584.754 719.073 580.786 726.641C580.033 728.076 577.338 729.114 575.473 729.225C569.832 729.559 564.159 729.347 557.999 729.348Z" fill="#01ADF8"/>
<path d="M509.001 771.752C531.146 771.75 552.792 771.741 574.437 771.75C580.597 771.753 581.335 772.5 581.405 778.612C581.424 780.277 581.947 782.232 581.259 783.538C580.255 785.445 578.549 787.141 576.775 788.418C575.889 789.057 574.19 788.588 572.859 788.588C510.919 788.591 448.98 788.616 387.041 788.499C384.444 788.494 379.912 787.602 379.614 786.338C378.663 782.31 378.955 777.861 379.569 773.694C379.702 772.791 383.18 771.838 385.122 771.828C409.431 771.705 433.741 771.751 458.05 771.752C474.867 771.753 491.684 771.752 509.001 771.752Z" fill="#02ACF8"/>
<path d="M508 758.963C467.038 758.963 426.576 758.966 386.114 758.961C379.113 758.96 378.632 758.402 378.621 750.542C378.611 742.705 379.178 742.02 386.047 742.019C448.654 742.01 511.262 741.981 573.87 742.141C576.273 742.147 580.522 743.731 580.725 745.065C581.343 749.13 580.686 753.492 579.82 757.59C579.65 758.391 576.315 758.897 574.438 758.905C552.459 758.994 530.479 758.963 508 758.963Z" fill="#02AFFC"/>
<path d="M477 801.094C498.325 801.095 519.15 800.997 539.973 801.227C542.398 801.254 546.644 802.786 546.873 804.152C547.552 808.202 546.812 812.543 546.179 816.702C546.082 817.337 543.612 817.993 542.238 817.996C500.756 818.064 459.273 818.033 417.79 818.085C414.213 818.089 412.548 816.456 412.397 813.051C412.316 811.222 412.431 809.384 412.346 807.555C412.126 802.842 414.424 801.031 419.024 801.054C438.182 801.151 457.341 801.095 477 801.094Z" fill="#02AEFB"/>
<path d="M269.216 460.951C273.948 461.339 278.233 461.688 282.794 462.061C286.321 452.351 289.772 442.852 293.281 433.191C295.79 433.191 298.247 433.191 301.305 433.191C296.882 445.591 292.562 457.706 288.08 470.274C280.691 469.633 273.261 469.097 265.86 468.292C263.001 467.981 261.133 468.306 259.293 471.042C256.241 475.58 250.431 476.845 245.508 474.895C240.485 472.905 237.573 468.247 237.866 462.67C238.149 457.294 241.79 452.982 247.138 451.688C252.323 450.433 257.744 452.44 260.234 457.434C262.262 461.501 265.674 460.419 269.216 460.951Z" fill="#02ACF8"/>
</g>
<defs>
<clipPath id="clip0_474_41">
<rect width="959" height="823" fill="white"/>
</clipPath>
</defs>
</svg>
