<svg version="1.1" id="Layer_1" xmlns="http://www.w3.org/2000/svg" xmlns:xlink="http://www.w3.org/1999/xlink" x="0px" y="0px"
	 width="100%" viewBox="0 0 1024 1024" enable-background="new 0 0 1024 1024" xml:space="preserve">

<path fill="#00D2FF" opacity="1.000000" stroke="none" 
	d="
M209.010590,552.999390 
	C204.538681,552.999390 200.564972,552.999390 196.097244,552.999390 
	C196.097244,529.386414 196.097244,506.042023 196.097244,481.553101 
	C179.397980,505.078705 163.406967,527.606567 146.805130,550.994873 
	C130.529449,528.160217 114.648369,505.879120 98.225327,482.837677 
	C98.225327,506.539612 98.225327,529.497009 98.225327,552.724487 
	C81.288750,552.724487 64.896690,552.724487 48.001587,552.724487 
	C48.001587,551.192139 48.001583,549.746887 48.001583,548.301636 
	C48.001579,490.158173 48.049854,432.014618 47.907398,373.871521 
	C47.896332,369.354736 48.936516,367.802155 53.713707,367.884369 
	C68.886971,368.145386 68.826859,367.993774 77.749001,380.324127 
	C99.650726,410.592224 121.612694,440.816742 143.571213,471.043671 
	C144.499115,472.320984 145.635651,473.446808 146.875244,474.873718 
	C153.871307,465.390228 160.957672,455.871155 167.951782,446.284821 
	C181.067627,428.307770 194.119705,410.284210 207.220154,392.295898 
	C212.104004,385.589874 217.221588,379.045746 221.883682,372.190552 
	C223.837234,369.318085 225.804001,367.741089 229.415039,367.933929 
	C234.381393,368.199219 239.372528,368.000336 244.675385,368.000336 
	C244.675385,429.600769 244.675385,490.980377 244.675385,552.999390 
	C233.022537,552.999390 221.265671,552.999390 209.010590,552.999390 
z"/>
<path fill="#00D2FF" opacity="1.000000" stroke="none" 
	d="
M460.975494,501.842010 
	C454.773712,511.175201 449.647858,521.134155 442.193146,528.840332 
	C428.255432,543.248291 410.819244,552.534607 390.889435,555.818848 
	C380.713928,557.495605 370.173859,558.375122 359.906219,557.774475 
	C340.299469,556.627747 322.045624,550.269348 306.202271,538.505066 
	C290.354523,526.737549 278.850830,511.509491 272.792084,492.435974 
	C265.221283,468.602448 266.108154,445.182526 276.311310,422.330933 
	C289.368378,393.087524 312.288177,375.438354 343.010406,368.236511 
	C353.589844,365.756500 364.881439,364.679321 375.718750,365.281555 
	C397.014252,366.464966 416.501526,373.503754 433.576141,386.939545 
	C451.983154,401.423767 463.487030,420.256104 467.650024,442.861725 
	C471.308502,462.727692 469.831909,482.674652 460.975494,501.842010 
M352.392029,508.070496 
	C355.211731,508.726776 358.012756,509.480804 360.854248,510.023163 
	C377.662872,513.231323 392.315277,508.067352 404.418518,496.844086 
	C423.898560,478.780365 424.634705,446.623138 405.683685,427.399200 
	C393.305786,414.843048 378.000854,410.052032 360.140015,412.878387 
	C337.216583,416.505829 320.707520,433.747650 318.129639,456.166107 
	C315.625061,477.946747 328.703918,501.174713 352.392029,508.070496 
z"/>
<path fill="#00D2FF" opacity="1.000000" stroke="none" 
	d="
M620.283447,397.791351 
	C627.556335,408.934113 630.926758,420.801422 629.981995,433.766327 
	C629.146545,445.232697 625.524231,455.825378 617.856689,464.418854 
	C612.515503,470.405060 606.088562,475.422546 599.797485,481.192871 
	C615.132690,504.199066 631.068787,528.106689 647.422180,552.640381 
	C645.604919,552.784668 644.253540,552.983582 642.901978,552.985352 
	C626.577271,553.006897 610.250366,552.857422 593.929504,553.106995 
	C590.211060,553.163818 588.629517,551.609131 586.872009,548.719971 
	C572.482849,525.065247 557.913391,501.520172 543.380798,477.952881 
	C543.244812,477.732391 542.864624,477.662445 542.105530,477.262482 
	C542.105530,502.525146 542.105530,527.518433 542.105530,552.753174 
	C525.231934,552.753174 508.841583,552.753174 492.226074,552.753174 
	C492.226074,491.870239 492.226074,431.163208 492.226074,370.000641 
	C496.188049,370.000641 499.974396,370.000641 503.760742,370.000641 
	C523.916748,370.000641 544.075317,369.798401 564.228027,370.056061 
	C585.539856,370.328522 603.584778,378.231628 617.804443,394.339966 
	C618.656128,395.304810 619.287537,396.464111 620.283447,397.791351 
M561.283569,449.999847 
	C564.657593,449.045990 568.262024,448.561798 571.358704,447.042633 
	C578.269104,443.652649 581.023560,437.369324 579.994812,428.885498 
	C579.371277,423.743042 572.409973,415.775818 566.960510,415.151764 
	C558.835510,414.221252 550.620178,414.080261 542.240723,413.591522 
	C542.240723,426.178131 542.240723,437.895844 542.240723,449.999786 
	C548.426941,449.999786 554.379944,449.999786 561.283569,449.999847 
z"/>
<path fill="#00D2FF" opacity="1.000000" stroke="none" 
	d="
M869.755554,392.607971 
	C873.326294,384.741913 876.616638,377.172089 880.189941,369.738281 
	C880.643555,368.794617 882.567749,368.106964 883.828796,368.077332 
	C890.651855,367.917084 897.480530,368.001312 904.746277,368.001312 
	C933.024109,429.510406 961.322754,491.064850 989.795288,552.997437 
	C972.125916,552.997437 954.846558,553.037415 937.568604,552.902100 
	C936.485779,552.893616 934.884888,551.752197 934.425781,550.732361 
	C932.110107,545.588196 930.257263,540.232605 927.862305,535.129333 
	C927.221619,533.764160 925.253723,532.144470 923.881409,532.131775 
	C903.221375,531.941162 882.558533,531.942566 861.898499,532.133179 
	C860.576477,532.145447 858.726501,533.806335 858.056396,535.162048 
	C855.479797,540.375061 853.459045,545.865967 850.806946,551.035706 
	C850.233337,552.153748 847.903015,552.904541 846.374634,552.916809 
	C829.881104,553.048889 813.386108,552.999207 796.014465,552.999207 
	C798.952148,546.415039 801.653564,540.176331 804.503906,534.006409 
	C813.124023,515.347412 821.843140,496.734131 830.447449,478.067902 
	C843.519348,449.709442 856.527222,421.321472 869.755554,392.607971 
M906.946533,486.640594 
	C902.297363,476.113831 897.648193,465.587097 892.679626,454.337158 
	C886.463013,468.717834 880.665100,482.129974 874.718445,495.886108 
	C887.062073,495.886108 898.713135,495.886108 910.689514,495.886108 
	C909.448486,492.990051 908.254028,490.202698 906.946533,486.640594 
z"/>
<path fill="#02AEFA" opacity="1.000000" stroke="none" 
	d="
M621.907043,839.487671 
	C619.209534,839.816162 616.889038,840.089661 614.568420,840.090454 
	C546.077087,840.113281 477.585754,840.110046 409.094421,840.108032 
	C398.274536,840.107727 394.161102,835.927734 394.158234,824.925842 
	C394.152863,804.261780 394.072296,783.597107 394.238647,762.934387 
	C394.266846,759.429688 393.204681,757.822937 389.915741,756.396606 
	C307.103088,720.483032 249.239304,660.393311 216.059326,576.486450 
	C215.822037,575.886414 215.717255,575.233948 215.388718,573.995911 
	C220.438660,573.995911 225.206406,573.757629 229.919861,574.158203 
	C231.146408,574.262512 232.680115,576.162109 233.267654,577.572510 
	C243.956543,603.230286 257.557983,627.188721 274.719849,649.081177 
	C311.886322,696.492554 358.792694,730.599670 416.010956,749.354248 
	C446.890289,759.475708 478.872162,765.406494 511.733551,764.737732 
	C587.385620,763.198059 654.892273,740.141541 711.834595,689.180176 
	C746.127014,658.489807 772.263306,621.920715 789.716492,579.306824 
	C791.504944,574.940125 793.612549,573.429810 798.058411,573.919861 
	C801.341919,574.281738 804.697388,573.990967 809.151245,573.990967 
	C805.121643,583.312866 801.697083,592.229065 797.507874,600.770203 
	C762.039795,673.082703 707.358215,725.248718 633.162292,756.766907 
	C630.220215,758.016663 629.794189,759.722473 629.803284,762.438599 
	C629.874268,783.768982 629.804810,805.099915 629.862976,826.430359 
	C629.879028,832.300415 627.815735,836.782104 621.907043,839.487671 
M478.238159,779.114075 
	C455.148376,776.965820 432.744659,771.501343 410.296173,764.464661 
	C410.296173,784.653931 410.296173,804.200562 410.296173,823.922485 
	C478.243683,823.922485 545.914673,823.922485 613.781250,823.922485 
	C613.781250,804.146118 613.781250,784.709717 613.781250,764.378601 
	C569.716431,778.777100 524.961731,784.122681 478.238159,779.114075 
z"/>
<path fill="#00D2FF" opacity="1.000000" stroke="none" 
	d="
M679.004150,370.000671 
	C713.808655,370.000671 748.113647,370.000671 782.708618,370.000671 
	C782.708618,385.349915 782.708618,400.413208 782.708618,415.942688 
	C759.589783,415.942688 736.522949,415.942688 713.230469,415.942688 
	C713.230469,424.347931 713.230469,432.295044 713.230469,440.708252 
	C732.168762,440.708252 751.236145,440.708252 770.650330,440.708252 
	C770.650330,454.562775 770.650330,467.960846 770.650330,481.826233 
	C751.708740,481.826233 732.641113,481.826233 713.288696,481.826233 
	C713.288696,490.350098 713.288696,498.414154 713.288696,506.945526 
	C736.409790,506.945526 759.476624,506.945526 782.768738,506.945526 
	C782.768738,522.352478 782.768738,537.298340 782.768738,552.622253 
	C743.490479,552.622253 704.094055,552.622253 664.348816,552.622253 
	C664.348816,492.097626 664.348816,431.368988 664.348816,370.000671 
	C668.980713,370.000671 673.742737,370.000671 679.004150,370.000671 
z"/>
<path fill="#00C2FF" opacity="1.000000" stroke="none" 
	d="
M866.165039,209.999557 
	C864.110168,219.312912 862.072876,228.630188 859.995483,237.938507 
	C857.946228,247.120834 848.559021,252.836655 839.411987,250.768921 
	C830.256042,248.699219 820.966858,247.174835 811.900940,244.785980 
	C809.919739,244.263931 807.295959,241.055206 807.349182,239.150269 
	C807.427124,236.356598 809.247375,233.688217 813.598267,234.727966 
	C823.046021,236.985779 832.632385,238.660492 842.151917,240.623016 
	C845.636353,241.341370 849.277832,238.473297 850.028625,234.566345 
	C851.125061,228.860779 852.411499,223.191727 853.692139,217.152740 
	C842.427429,214.785965 831.043457,212.369003 819.648254,210.005859 
	C802.832886,206.518707 786.008362,203.075653 769.190369,199.601501 
	C763.478638,198.421631 757.813782,196.946594 752.056641,196.073776 
	C745.723755,195.113693 740.897156,200.515686 740.003479,209.016205 
	C739.288208,215.819702 741.769714,219.200821 748.609558,221.040680 
	C752.044617,221.964691 755.187317,223.827698 753.816589,227.889420 
	C752.713440,231.158340 750.403076,232.506302 746.056824,231.233948 
	C732.924866,227.389542 727.240234,219.034256 730.084290,204.652222 
	C734.698425,181.319321 739.798096,158.082443 744.952026,134.073883 
	C745.752319,130.561829 746.293457,127.780930 746.834534,125.000031 
	C748.360718,117.359894 749.471985,109.606964 751.510925,102.106186 
	C754.529907,90.999786 764.174683,83.638687 779.489197,87.096313 
	C801.628174,92.094704 823.921570,96.409500 846.151611,101.003769 
	C854.570862,102.743767 863.212036,103.772461 871.361206,106.357368 
	C879.941772,109.079056 885.629761,115.754997 882.580688,129.090027 
	C877.631958,150.733536 873.483032,172.559982 869.010315,194.312042 
	C868.911255,194.793701 868.977783,195.309402 868.631409,196.480072 
	C867.585510,201.433792 866.875244,205.716675 866.165039,209.999557 
M772.063110,138.758484 
	C774.957642,125.320648 777.852234,111.882812 780.745056,98.453018 
	C779.272522,98.023331 777.899231,97.571861 776.500488,97.222900 
	C768.817810,95.306213 762.446533,99.352264 760.972351,106.653389 
	C756.804688,127.294304 752.451538,147.897705 748.204224,168.522644 
	C747.039124,174.179901 745.989319,179.860916 744.793274,186.011261 
	C748.652710,186.011261 752.254883,185.159241 755.196350,186.190948 
	C761.082336,188.255417 762.847961,186.193542 763.836975,180.629272 
	C766.275146,166.911774 769.249207,153.289536 772.063110,138.758484 
M803.992920,135.355881 
	C801.934509,141.625595 802.392883,142.794266 808.686462,144.239456 
	C820.521362,146.957108 832.391785,149.542969 844.321533,151.790665 
	C845.625549,152.036362 848.182800,150.027405 848.814636,148.506042 
	C850.033691,145.570496 850.433289,142.257080 850.909180,139.061111 
	C851.364807,136.001160 850.744995,133.696991 846.943726,132.931534 
	C834.727051,130.471436 822.578308,127.676247 810.382446,125.109337 
	C807.534302,124.509865 805.541138,125.675575 805.006348,128.747345 
	C804.672424,130.665146 804.335510,132.582443 803.992920,135.355881 
z"/>
<path fill="#01AEFA" opacity="1.000000" stroke="none" 
	d="
M571.517700,153.560013 
	C617.608948,162.357544 659.266541,180.465057 696.910034,207.647141 
	C736.855164,236.491196 768.429199,272.766357 791.540588,316.304108 
	C796.191467,325.065430 800.226013,334.153900 804.985107,344.003113 
	C799.098450,344.003113 794.333374,344.232269 789.617493,343.851654 
	C788.342590,343.748779 786.724365,342.026215 786.095886,340.663269 
	C775.449890,317.576630 762.452942,295.929962 746.363953,276.234741 
	C697.570618,216.504517 635.281372,178.859039 559.000366,167.630508 
	C457.838470,152.739517 370.129059,182.019897 297.290039,254.226959 
	C272.318634,278.981720 253.105118,307.855347 238.471466,339.776337 
	C237.062103,342.850616 235.566483,344.487030 231.936661,344.088135 
	C228.478638,343.708099 224.947540,343.997406 221.448654,343.977905 
	C221.122452,343.976105 220.796844,343.869507 219.752380,343.683746 
	C220.380737,341.989929 220.879654,340.368744 221.567001,338.831787 
	C255.596634,262.739777 310.495270,207.364777 386.821594,173.796326 
	C433.823608,153.124771 483.227295,144.952530 534.476013,148.942474 
	C546.729187,149.896454 558.899902,151.911423 571.517700,153.560013 
z"/>
<path fill="#02ACF8" opacity="1.000000" stroke="none" 
	d="
M522.450867,316.285706 
	C487.560455,314.264526 456.051453,322.881683 427.451080,342.201324 
	C425.927124,343.230774 423.876862,343.685669 422.007385,343.944855 
	C419.881989,344.239532 417.684326,344.013184 415.518097,344.013184 
	C389.286011,344.013184 389.265289,344.044464 367.427338,329.574860 
	C366.183868,328.750946 365.127991,326.801575 364.988373,325.283691 
	C363.524323,309.366974 362.338165,293.424408 360.817108,277.513672 
	C360.689148,276.175323 358.889221,274.260315 357.530823,273.908875 
	C352.710602,272.661682 347.770050,271.743988 342.820221,271.210144 
	C341.194427,271.034760 339.091431,272.028107 337.741760,273.137848 
	C333.032898,277.009552 327.889343,277.774078 323.007324,274.910583 
	C318.621704,272.338257 316.160126,266.942352 317.166809,262.107758 
	C318.272827,256.796082 322.921509,252.628845 328.317780,252.111633 
	C333.269623,251.637024 338.005646,254.884171 340.702576,259.831818 
	C341.622864,261.520081 343.698730,263.239655 345.536011,263.650421 
	C352.824463,265.279999 360.227448,266.397430 367.885803,267.757538 
	C369.283600,284.627533 370.800476,301.325500 371.953125,318.048584 
	C372.220520,321.927795 373.223206,324.456360 376.830505,326.374969 
	C384.758087,330.591339 392.395386,335.351196 400.280548,339.651917 
	C401.509521,340.322235 403.988739,340.424683 404.929596,339.639374 
	C418.309753,328.470947 432.983124,319.439240 449.550018,312.354614 
	C444.946655,304.307343 440.529907,296.541870 436.069641,288.801514 
	C431.499481,280.870331 426.764374,273.030853 422.360565,265.009003 
	C420.872955,262.299225 419.242523,260.984039 416.031586,260.497528 
	C409.693207,259.537201 405.660858,254.119736 405.991608,248.123657 
	C406.302673,242.484253 410.809937,237.615433 416.313538,236.973679 
	C422.341309,236.270828 427.860168,239.532196 429.198547,245.522949 
	C429.827972,248.340607 429.308167,251.859756 428.103607,254.513885 
	C426.961151,257.031189 427.146454,258.614410 428.421570,260.803925 
	C437.048523,275.617401 445.650574,290.447266 454.040039,305.395691 
	C455.939941,308.780853 457.673920,309.414673 461.464752,308.148682 
	C478.658844,302.406494 496.416595,299.922089 514.544800,300.105865 
	C515.851562,300.119110 517.158569,300.107574 519.041260,300.107574 
	C518.084900,289.001129 517.279114,278.279358 516.095764,267.599426 
	C515.945068,266.239502 514.024353,264.752350 512.581787,263.908569 
	C497.236328,254.932739 481.821686,246.075043 466.273895,237.097000 
	C468.299011,229.456055 470.489197,221.793213 472.261200,214.034851 
	C472.648163,212.340683 472.082947,209.895889 471.026581,208.500702 
	C467.169769,203.406815 466.520782,197.749725 469.765228,192.780258 
	C472.568390,188.486679 477.860077,186.398514 482.789001,187.640900 
	C488.386658,189.051834 492.174042,193.457260 492.478485,198.911560 
	C492.797852,204.633514 489.544128,209.182251 483.909607,211.687241 
	C482.410461,212.353714 480.878235,214.016190 480.337616,215.562714 
	C478.859314,219.791656 478.146149,224.288528 476.660828,228.514389 
	C475.445862,231.971161 476.127167,233.785980 479.446625,235.640594 
	C493.247162,243.351196 506.923157,251.292389 520.472229,259.436066 
	C522.191956,260.469727 523.712280,263.109894 523.931335,265.155029 
	C525.186340,276.873779 526.020203,288.637604 526.970337,300.065735 
	C536.489197,302.054382 545.552368,304.063019 554.679382,305.720001 
	C555.927063,305.946503 558.141479,304.799683 558.814941,303.648834 
	C570.246521,284.114685 581.593201,264.529022 592.719727,244.819885 
	C594.692627,241.325287 596.863464,240.045990 600.903137,240.091888 
	C620.729980,240.317169 640.560852,240.158203 660.389954,240.235931 
	C663.210754,240.246979 665.159973,239.889389 666.891174,237.059494 
	C670.636841,230.936722 678.837646,229.901047 684.315186,234.327042 
	C689.487976,238.506836 689.990295,246.857422 685.361511,251.720535 
	C680.435486,256.895966 672.359192,256.927002 667.812317,251.193130 
	C665.637695,248.450974 663.478149,247.813446 660.293030,247.833130 
	C641.464172,247.949554 622.633667,247.828217 603.805481,247.988846 
	C601.998291,248.004257 599.331360,248.891083 598.533325,250.241760 
	C587.196594,269.429199 576.113770,288.766632 564.706238,308.523987 
	C569.166016,310.347534 573.498413,311.856781 577.593750,313.852386 
	C584.466736,317.201447 591.301880,320.664551 597.916626,324.488495 
	C600.423523,325.937744 602.070557,326.129913 604.606689,324.609406 
	C615.170227,318.276093 625.928650,312.268677 636.541321,306.015625 
	C639.019409,304.555511 640.958557,304.256744 643.792480,305.635132 
	C658.738403,312.904907 673.845215,319.843811 689.277466,327.076172 
	C693.462219,322.144836 697.731934,317.301392 701.718506,312.235077 
	C702.402832,311.365234 702.151611,309.487244 701.868408,308.175232 
	C700.655457,302.556671 702.482727,297.418213 706.870667,294.661865 
	C711.615112,291.681580 717.632324,292.102081 721.712036,295.699066 
	C725.609619,299.135498 726.895264,304.575439 724.941467,309.363434 
	C722.860962,314.461914 717.802124,317.829529 712.171021,316.851807 
	C708.852661,316.275635 707.329224,317.605316 705.547791,319.776428 
	C700.906860,325.432495 696.117004,330.966492 691.328857,336.617340 
	C675.731323,329.271088 660.216919,322.103760 644.857727,314.618042 
	C641.585693,313.023376 639.275024,313.214417 636.234558,315.076050 
	C627.310974,320.539856 618.157104,325.627686 608.561584,331.169952 
	C613.512756,335.307617 618.123596,339.160889 623.863159,343.957367 
	C614.830994,343.957367 607.120056,344.001678 599.411194,343.895966 
	C598.539551,343.884064 597.625122,343.105225 596.822021,342.549652 
	C574.548340,327.141235 549.924927,318.372620 522.450867,316.285706 
z"/>
<path fill="#02ACF8" opacity="1.000000" stroke="none" 
	d="
M337.390594,658.578003 
	C333.998322,653.723877 333.606049,648.962158 336.687469,644.286743 
	C339.796021,639.570129 344.301697,638.349243 349.801270,639.338501 
	C351.156158,639.582214 353.100464,638.412231 354.295013,637.352417 
	C358.750427,633.399475 363.006866,629.222168 367.547180,624.931396 
	C379.437286,636.373474 391.638092,648.114563 404.249298,660.250549 
	C418.557251,645.296997 432.651886,630.566345 447.062225,615.505737 
	C425.130676,605.704163 406.263367,592.441406 389.704895,574.021118 
	C397.365936,574.021118 404.088837,573.898499 410.799438,574.131165 
	C412.046082,574.174377 413.351501,575.523438 414.447540,576.478882 
	C470.329742,625.189453 553.488464,625.219177 609.442871,576.639160 
	C611.129517,575.174805 613.764832,574.244934 616.022156,574.105286 
	C621.750732,573.750732 627.515991,573.987427 633.794678,575.125916 
	C626.946899,581.554810 620.099121,587.983704 612.903442,594.739197 
	C623.465820,600.830383 633.899109,606.944397 644.475891,612.799255 
	C645.559998,613.399353 647.663086,612.793457 649.023071,612.163696 
	C665.287292,604.631348 681.500427,596.988464 697.958191,589.266052 
	C703.130371,595.323486 708.199097,601.495056 713.581665,607.379517 
	C714.763062,608.671082 717.087952,609.627808 718.839966,609.558960 
	C725.264832,609.306396 730.007935,611.736694 732.183533,617.031555 
	C734.243530,622.045105 732.978333,627.719360 729.032043,631.165894 
	C725.069824,634.626343 718.972656,635.252319 714.595947,632.647888 
	C709.661255,629.711487 707.755371,624.659363 708.865662,618.390442 
	C709.141052,616.835266 709.030212,614.683960 708.146484,613.542786 
	C704.381531,608.681152 700.260010,604.095642 695.906006,598.983704 
	C685.723877,603.745728 675.526611,608.504456 665.338867,613.283569 
	C659.612549,615.969910 653.967224,618.845764 648.139343,621.287537 
	C646.653198,621.910095 644.278015,621.799927 642.876526,621.015991 
	C631.546448,614.677490 620.407104,607.997131 609.052490,601.704468 
	C607.416687,600.797974 604.368958,600.520325 602.946655,601.445618 
	C589.592590,610.133667 575.340881,616.821228 560.193604,621.669556 
	C559.596313,621.860718 559.036194,622.167969 557.583191,622.805054 
	C572.024841,626.692322 585.608948,630.534180 599.305542,633.921204 
	C603.357178,634.923157 605.325256,636.572327 606.370117,640.778687 
	C610.299561,656.596191 614.763000,672.280396 618.909485,688.045288 
	C619.597229,690.660034 620.523132,692.260254 623.462524,693.104187 
	C628.238953,694.475647 630.772095,698.182800 630.854553,703.220764 
	C630.929016,707.777405 627.666138,711.833374 623.157349,713.160461 
	C618.677856,714.478943 613.790649,712.802246 611.319458,708.919739 
	C608.605225,704.655273 608.978333,700.523254 611.801758,696.324829 
	C612.743225,694.924744 613.507263,692.733093 613.121521,691.216370 
	C609.142944,675.575378 604.876953,660.007690 600.784973,644.395020 
	C600.088013,641.735657 598.903748,640.362122 595.993225,639.622070 
	C579.710510,635.481689 563.516785,630.992554 547.268311,626.715210 
	C545.387024,626.219849 543.329407,625.997070 541.397034,626.161072 
	C531.949951,626.962891 522.505066,627.832947 513.092102,628.953186 
	C511.458221,629.147705 509.351166,630.277527 508.533478,631.625122 
	C503.006989,640.733337 497.864380,650.073792 492.379150,659.208008 
	C490.718353,661.973694 490.819153,664.195801 492.186554,667.039307 
	C499.816925,682.906616 507.251648,698.868103 514.867676,715.040283 
	C508.921143,720.085266 503.012909,725.186768 496.994385,730.154602 
	C494.941193,731.849487 493.755951,733.263245 494.478516,736.390503 
	C495.689514,741.631592 492.283966,747.006104 487.205475,749.298523 
	C482.407806,751.464294 476.791321,750.216736 473.091461,746.163513 
	C469.516510,742.247131 468.841217,736.330688 471.449463,731.776611 
	C474.074310,727.193604 479.588531,724.297546 484.585876,725.929810 
	C488.119293,727.083801 490.117767,725.953125 492.472809,723.809326 
	C496.516388,720.128418 500.770203,716.678345 505.184723,712.919373 
	C497.862549,697.378357 490.740112,682.011230 483.345123,666.776428 
	C481.861816,663.720581 481.879181,661.494629 483.644012,658.570435 
	C489.467316,648.921509 494.964172,639.075562 500.758331,629.006348 
	C492.025177,627.532959 483.838837,626.413696 475.777344,624.705505 
	C469.771484,623.432983 463.858826,621.598328 458.041748,619.612427 
	C455.425140,618.719055 453.921326,619.046143 452.011993,621.067261 
	C437.605530,636.317078 423.063873,651.439270 408.549408,666.586914 
	C407.304260,667.886414 405.950439,669.081726 404.404938,670.556580 
	C391.895935,658.601135 379.650574,646.897644 367.667450,635.444824 
	C364.546265,638.303406 361.491852,640.858398 358.780762,643.736816 
	C358.003601,644.562012 357.856354,646.374878 358.041046,647.644714 
	C358.943817,653.852661 356.948486,658.788696 352.246582,661.357422 
	C347.477478,663.962708 342.666748,663.141968 337.390594,658.578003 
z"/>
<path fill="#00C2FF" opacity="1.000000" stroke="none" 
	d="
M305.155640,796.007385 
	C303.338867,804.238708 301.713196,812.518738 299.629547,820.681946 
	C298.484650,825.167358 294.999146,826.878906 290.649292,825.864685 
	C263.686584,819.578125 236.728851,813.270203 209.761932,807.001709 
	C196.673340,803.959290 183.564682,801.003235 170.473190,797.973206 
	C166.441376,797.040100 164.201477,793.830994 165.073990,790.011536 
	C166.981033,781.663330 169.029205,773.347351 171.293243,764.391846 
	C173.417114,761.831360 175.267471,759.897217 177.117828,757.963135 
	C189.531891,760.879883 201.931854,763.858337 214.363068,766.700134 
	C238.316757,772.175964 262.293060,777.552979 286.248383,783.021790 
	C291.590729,784.241394 296.885101,785.671143 302.728394,787.433899 
	C303.888702,790.578247 304.522186,793.292847 305.155640,796.007385 
M247.448303,793.007019 
	C238.139328,790.940430 228.838074,788.837402 219.510132,786.860413 
	C218.513840,786.649231 217.361786,787.172974 216.281998,787.355713 
	C217.127869,788.243347 217.826935,789.643433 218.843658,789.934631 
	C225.037781,791.709106 231.282394,793.322388 237.550720,794.819763 
	C253.255905,798.571411 268.972778,802.276672 284.721130,805.840637 
	C285.893677,806.106018 287.354279,805.098755 288.680969,804.683105 
	C287.621918,803.786133 286.691986,802.374878 285.483887,802.071655 
	C273.116089,798.966919 260.703156,796.042114 247.448303,793.007019 
M200.648727,777.099487 
	C196.848984,771.010498 190.869690,771.359375 186.088989,774.496826 
	C182.085571,777.124146 181.730484,784.705261 185.169022,788.654297 
	C188.278076,792.224854 193.281433,793.185425 197.164917,790.957581 
	C201.758881,788.322144 203.034241,784.114807 200.648727,777.099487 
z"/>
<path fill="#00C2FF" opacity="1.000000" stroke="none" 
	d="
M182.974640,714.141724 
	C185.293335,709.766418 189.151718,710.534790 192.337234,711.253357 
	C219.480820,717.375671 246.575760,723.714478 273.674347,730.035278 
	C286.273834,732.974121 298.850830,736.009460 311.434570,739.015503 
	C316.105286,740.131348 317.759766,743.086548 316.638062,747.805664 
	C314.692993,755.988770 312.909454,764.210205 310.965607,772.393616 
	C310.147156,775.839111 308.537537,778.756531 304.278748,777.965393 
	C295.836639,776.397278 287.384949,774.834045 279.018280,772.915344 
	C256.313263,767.708435 233.647781,762.328796 210.972488,756.992737 
	C201.219025,754.697510 191.435150,752.510315 181.751526,749.947510 
	C176.054214,748.439697 175.325027,746.441528 176.785385,740.485107 
	C178.900284,731.859009 180.867935,723.196777 182.974640,714.141724 
M286.648376,755.993286 
	C290.920715,756.706421 295.193054,757.419556 299.465424,758.132690 
	C299.648132,757.431030 299.830811,756.729370 300.013519,756.027710 
	C298.528534,755.349426 297.104828,754.429688 295.547974,754.034424 
	C288.656921,752.284851 281.732300,750.666077 274.811127,749.036804 
	C260.637604,745.700317 246.470261,742.335388 232.265076,739.139038 
	C230.701035,738.787109 228.907135,739.456726 226.056229,739.787659 
	C228.042984,741.383911 228.915634,742.620544 230.020370,742.884033 
	C236.317673,744.385925 242.697067,745.542358 248.998428,747.028687 
	C261.279907,749.925476 273.528229,752.962830 286.648376,755.993286 
M195.909912,728.624573 
	C192.692810,731.810852 193.023621,736.082214 194.957413,738.981995 
	C196.739029,741.653503 200.554901,744.203735 203.662598,744.451599 
	C207.803757,744.781921 211.834641,742.026306 212.867950,737.479553 
	C213.867798,733.080078 212.830383,728.708557 208.526718,726.281250 
	C204.245071,723.866455 200.015671,724.283386 195.909912,728.624573 
z"/>
<path fill="#00C2FF" opacity="1.000000" stroke="none" 
	d="
M713.856812,789.989624 
	C711.572083,778.899841 709.278259,767.812012 707.005981,756.719666 
	C705.542847,749.577087 704.285461,742.387024 702.616699,735.293335 
	C700.977356,728.325012 704.093689,722.484619 711.132019,720.988647 
	C730.452576,716.882324 749.811157,712.954712 769.164856,709.005920 
	C777.902344,707.223267 786.690247,705.680420 795.406677,703.803223 
	C803.105469,702.145142 808.178833,704.924255 809.804810,712.680969 
	C813.029785,728.066528 815.949158,743.515991 819.009521,758.936157 
	C819.290894,760.353699 819.676941,761.750427 819.999207,763.975220 
	C820.665649,767.572327 821.347229,770.351135 822.028809,773.129883 
	C823.425842,780.595093 824.297119,788.210876 826.378052,795.480347 
	C828.205383,801.863770 825.881348,808.971924 817.211792,810.800781 
	C798.208679,814.809570 779.090515,818.271362 760.031128,822.016235 
	C751.460205,823.700256 742.889038,825.401550 734.370483,827.327148 
	C726.857788,829.025330 721.732849,826.215088 719.972656,818.769226 
	C718.487732,812.487488 717.297180,806.136047 715.927856,799.008118 
	C715.205261,795.463684 714.531006,792.726685 713.856812,789.989624 
M759.745300,722.063965 
	C759.157776,722.360474 758.600342,722.805847 757.978333,722.931641 
	C744.636292,725.628235 731.330750,728.548462 717.913879,730.805847 
	C713.635315,731.525635 713.626648,733.533752 714.256348,736.563660 
	C715.112610,740.683533 716.135986,744.768677 716.984741,748.889954 
	C721.330872,769.992188 725.814697,791.068787 729.827576,812.234497 
	C730.653625,816.591736 732.733887,816.297241 735.691040,815.674316 
	C741.396057,814.472473 747.084045,813.188904 752.794434,812.013855 
	C772.310425,807.998352 791.810181,803.896301 811.372864,800.121216 
	C815.238708,799.375183 815.312683,797.931702 814.432251,794.737061 
	C813.014404,789.592529 812.068359,784.314026 811.014587,779.073669 
	C806.990051,759.058716 802.997253,739.037292 799.004883,719.015808 
	C798.319519,715.578857 796.584106,714.625305 793.011414,715.421692 
	C782.256897,717.818848 771.418518,719.839905 759.745300,722.063965 
z"/>
<path fill="#00C1FE" opacity="1.000000" stroke="none" 
	d="
M242.706329,691.311401 
	C240.896988,691.384888 239.425766,691.696716 237.954544,692.008545 
	C237.879120,692.547424 237.803711,693.086365 237.728287,693.625305 
	C239.972458,694.410950 242.167328,695.405029 244.468552,695.949341 
	C263.036133,700.340576 281.631195,704.615906 300.192535,709.033020 
	C301.874512,709.433289 303.552155,710.354309 304.935455,711.418701 
	C310.599335,715.776550 316.148254,720.283875 321.986450,724.932800 
	C320.021576,728.703735 318.504364,731.604675 312.905457,730.185181 
	C294.562195,725.534363 276.059570,721.510376 257.610870,717.277466 
	C236.793320,712.501099 215.969421,707.752502 195.144897,703.006592 
	C187.602219,701.287659 186.551910,699.921814 188.018906,692.478699 
	C189.552017,684.700195 191.249268,676.950378 193.061447,669.231934 
	C194.375763,663.633972 196.657761,662.503296 202.657547,663.867920 
	C224.902863,668.927307 247.159225,673.938354 269.390717,679.057617 
	C270.908264,679.407104 272.517822,680.222595 273.638336,681.289856 
	C280.726379,688.041199 287.688507,694.924744 294.692200,701.764648 
	C294.451202,702.282715 294.210236,702.800781 293.969238,703.318848 
	C276.994293,699.395813 260.019379,695.472778 242.706329,691.311401 
M212.048004,696.969177 
	C213.380249,696.977905 215.084930,697.519348 215.975616,696.896545 
	C218.770523,694.942322 222.326950,693.025696 223.585266,690.201843 
	C225.032745,686.953552 224.818436,682.456177 221.224365,679.845764 
	C218.220551,677.664062 214.974869,675.727112 210.868958,677.957214 
	C207.663406,679.698425 205.285950,681.603760 204.937653,685.616333 
	C204.476486,690.929016 206.694061,694.439819 212.048004,696.969177 
z"/>
<path fill="#00C2FF" opacity="1.000000" stroke="none" 
	d="
M215.250854,204.749084 
	C211.945572,201.433594 208.937378,198.319244 205.820755,195.317474 
	C203.121445,192.717667 203.115875,190.301331 205.814468,187.695175 
	C216.553162,177.324326 227.271378,166.932037 237.952301,156.501740 
	C240.242401,154.265366 242.104370,154.557007 244.272186,156.740631 
	C256.589844,169.147980 269.010559,181.453049 281.321442,193.867096 
	C284.095551,196.664459 286.446686,199.881256 289.220245,202.679245 
	C292.149353,205.634094 291.572021,208.075439 288.832489,210.693588 
	C279.723358,219.399139 270.615082,228.106949 261.610291,236.919968 
	C253.935654,244.431183 253.936188,244.557526 246.335327,236.801559 
	C236.000748,226.256042 225.773911,215.604919 215.250854,204.749084 
M256.466064,199.027832 
	C255.427429,196.302429 254.983932,193.076599 253.211304,190.968369 
	C250.522614,187.770660 246.755569,187.235550 242.605942,189.050369 
	C238.280548,190.942062 236.387802,194.470245 236.367401,198.587692 
	C236.345154,203.082687 241.739594,207.741089 246.090759,207.996857 
	C250.577408,208.260605 254.553436,204.946518 256.466064,199.027832 
z"/>
<path fill="#01ADF8" opacity="1.000000" stroke="none" 
	d="
M613.405273,861.988342 
	C613.289490,869.780029 612.733521,870.346191 605.356140,870.346863 
	C543.069214,870.352356 480.782257,870.381470 418.495636,870.240479 
	C416.005859,870.234863 411.623016,868.945923 411.383820,867.652039 
	C410.633972,863.596191 410.979340,859.137268 411.968475,855.095886 
	C412.228607,854.033203 416.353241,853.441711 418.705078,853.436157 
	C459.840881,853.339355 500.976959,853.367798 542.112976,853.368164 
	C563.097351,853.368408 584.081665,853.358765 605.066040,853.371216 
	C612.673706,853.375732 613.320740,854.035706 613.405273,861.988342 
z"/>
<path fill="#02ACF8" opacity="1.000000" stroke="none" 
	d="
M520.000732,912.751770 
	C548.973083,912.749634 577.445374,912.744568 605.917664,912.747498 
	C612.779175,912.748169 613.364136,913.333984 613.409180,920.090759 
	C613.470032,929.223083 613.104553,929.590149 603.880493,929.590271 
	C542.273804,929.591003 480.667023,929.616638 419.060547,929.499390 
	C416.461121,929.494446 411.925262,928.617859 411.624512,927.354187 
	C410.666473,923.328369 410.899719,918.864502 411.580078,914.718750 
	C411.737793,913.757568 415.495300,912.836914 417.600220,912.828369 
	C447.071045,912.708191 476.542542,912.749573 506.013855,912.751587 
	C510.509491,912.751892 515.005127,912.751648 520.000732,912.751770 
z"/>
<path fill="#02AFFC" opacity="1.000000" stroke="none" 
	d="
M410.678619,887.390869 
	C412.534027,885.631653 414.216095,883.512268 416.190094,883.191956 
	C419.922638,882.586304 423.822876,883.013123 427.653442,883.013123 
	C486.777435,883.013000 545.901489,882.985291 605.025208,883.106812 
	C607.608948,883.112122 612.134827,884.052368 612.414185,885.303284 
	C613.317200,889.347229 612.814331,893.752991 612.453979,897.985352 
	C612.391724,898.717163 610.451721,899.573792 609.257874,899.850952 
	C607.833313,900.181763 606.278198,899.961304 604.779663,899.961365 
	C543.990234,899.963623 483.200806,899.963928 422.411377,899.964417 
	C410.573730,899.964478 410.573730,899.964355 410.678619,887.390869 
z"/>
<path fill="#02AEFB" opacity="1.000000" stroke="none" 
	d="
M480.000000,959.056946 
	C470.170471,959.056946 460.840881,959.068848 451.511383,959.052551 
	C445.268555,959.041626 444.430695,958.173218 444.358826,951.775391 
	C444.345734,950.609314 444.393158,949.441895 444.353271,948.277039 
	C444.200165,943.803101 446.450623,942.019287 450.801453,942.062927 
	C460.796356,942.163269 470.792969,942.094177 480.788910,942.094238 
	C511.109894,942.094421 541.431274,942.029968 571.751160,942.215759 
	C574.219116,942.230835 578.538513,943.607239 578.790161,944.951416 
	C579.547424,948.996582 579.048767,953.403748 578.239929,957.512268 
	C578.070557,958.372375 574.479065,958.985413 572.462402,958.991516 
	C541.808472,959.084045 511.154205,959.056458 480.000000,959.056946 
z"/>
<path fill="#2DFF46" opacity="1.000000" stroke="none" 
	d="
M835.667236,758.105347 
	C845.434448,752.575012 855.497559,747.501038 864.898621,741.405884 
	C878.528320,732.569153 888.293823,720.109009 896.075256,705.909485 
	C905.163879,689.324768 910.885315,671.526550 914.727905,653.210083 
	C918.558472,634.950195 920.103210,616.310913 918.876404,597.635559 
	C918.302368,588.896545 916.434814,580.242493 915.112244,571.269897 
	C917.995483,571.269897 920.758728,571.269897 924.239075,571.269897 
	C925.156982,577.995911 926.347839,584.723145 926.927307,591.502747 
	C927.574341,599.070862 927.987915,606.688660 927.936401,614.280945 
	C927.805664,633.532410 924.603333,652.393188 919.514282,670.905090 
	C914.126953,690.502014 906.143860,708.916931 894.201111,725.562561 
	C886.193787,736.723083 876.167969,745.399536 864.386292,752.224365 
	C861.990540,753.612183 859.586304,754.985291 856.681641,756.531738 
	C854.200378,756.298584 852.163574,755.380432 850.258240,755.600464 
	C845.363464,756.166016 840.526978,757.236633 835.667236,758.105347 
z"/>
<path fill="#00C2FF" opacity="1.000000" stroke="none" 
	d="
M439.851562,57.993271 
	C454.687988,38.735386 474.371613,27.723883 498.215912,24.023293 
	C518.808411,20.827374 538.692383,23.297935 557.227112,33.120037 
	C568.238037,38.955090 578.423096,46.080711 586.014160,57.019192 
	C586.221130,61.368622 583.984253,63.054504 580.954712,64.110046 
	C579.287598,63.227978 577.208313,62.720009 576.016296,61.406704 
	C562.239502,46.227413 545.036682,36.850143 524.986816,34.308468 
	C506.410492,31.953588 488.117249,34.735874 471.695465,44.855682 
	C463.345367,50.001347 455.309387,55.568569 449.524384,63.798885 
	C448.808929,64.816788 447.058746,65.107368 445.248047,65.595245 
	C441.132874,64.241348 439.707916,61.627739 439.851562,57.993271 
z"/>
<path fill="#2DFF46" opacity="1.000000" stroke="none" 
	d="
M176.971130,757.647217 
	C175.267471,759.897217 173.417114,761.831360 171.305023,763.995117 
	C163.339554,755.413086 158.155914,745.150513 154.002502,734.328735 
	C146.818680,715.610962 142.773773,696.218384 142.015732,676.179932 
	C141.558701,664.098328 140.560516,651.969177 141.167313,639.929993 
	C142.331650,616.829163 147.564621,594.516785 157.096573,573.341858 
	C157.565445,572.300232 159.101456,571.289490 160.271149,571.108521 
	C162.543747,570.756897 164.909256,571.005676 167.231323,571.005676 
	C163.668640,581.013245 159.479324,590.716797 156.820694,600.822937 
	C154.099121,611.168457 152.216675,621.844055 151.177597,632.493286 
	C150.054550,644.002869 149.666290,655.675964 150.131134,667.230530 
	C151.276627,695.703430 156.369019,723.316772 170.862854,748.435608 
	C172.642838,751.520386 174.827377,754.371826 176.971130,757.647217 
z"/>
<path fill="#2DFF46" opacity="1.000000" stroke="none" 
	d="
M581.087280,64.413651 
	C583.984253,63.054504 586.221130,61.368622 586.085083,57.366829 
	C586.781799,57.515205 587.450012,57.999657 588.035461,58.569206 
	C601.131897,71.309402 613.933533,84.370720 627.397278,96.709732 
	C638.477417,106.864243 649.129639,117.811180 662.962219,124.393616 
	C675.810242,130.507507 689.515991,130.982956 703.420959,129.327118 
	C708.313477,128.744507 713.251465,128.553635 718.154297,128.045517 
	C727.438293,127.083382 736.711853,126.021240 746.412109,125.000336 
	C746.293457,127.780930 745.752319,130.561829 745.046265,133.690155 
	C738.270386,135.021301 731.687683,136.320480 725.042053,136.916321 
	C714.534363,137.858414 703.991821,138.497391 693.450806,138.964767 
	C670.292908,139.991562 651.130676,131.021790 634.691284,115.229820 
	C622.621582,103.635483 610.386841,92.212837 598.218750,80.720940 
	C592.560913,75.377464 586.886658,70.051285 581.087280,64.413651 
z"/>
<path fill="#00C2FF" opacity="1.000000" stroke="none" 
	d="
M769.016663,220.458923 
	C768.880859,219.373138 768.865723,218.178818 768.564026,218.101364 
	C764.191711,216.978989 759.809082,215.852905 755.371826,215.039032 
	C750.468323,214.139633 747.864502,211.551361 749.111389,207.585312 
	C750.353943,203.633087 753.293274,204.057602 756.973572,204.825775 
	C783.769226,210.418747 810.637207,215.665726 837.484192,221.012558 
	C841.422546,221.796906 844.045471,224.768661 842.892883,227.781006 
	C841.580933,231.209732 839.132812,232.580994 835.087280,231.638763 
	C823.263184,228.884857 811.349670,226.513748 799.461426,224.039520 
	C798.527344,223.845108 797.517700,224.013901 796.590393,224.013901 
	C794.949707,231.489807 793.362732,238.720840 791.414917,247.596313 
	C784.053345,238.785400 775.187927,238.272293 765.099060,241.766068 
	C766.603516,233.715668 767.803833,227.292725 769.016663,220.458923 
z"/>
<path fill="#2DFF46" opacity="1.000000" stroke="none" 
	d="
M866.465820,210.165558 
	C866.875244,205.716675 867.585510,201.433792 868.586365,196.883820 
	C880.782593,214.139877 888.284790,233.269928 891.106201,254.377243 
	C893.882446,275.146271 892.198364,295.534149 887.574524,315.800049 
	C886.238708,321.655121 884.552673,327.430084 883.038330,333.244690 
	C880.781311,341.910889 882.411438,341.482941 871.892639,340.544708 
	C873.944092,332.838043 876.449646,325.283264 877.901062,317.531128 
	C880.002014,306.310089 881.423157,294.957703 882.984070,283.640594 
	C885.384583,266.237000 882.384766,249.365875 876.901672,232.970276 
	C874.292053,225.166946 870.191711,217.862183 866.465820,210.165558 
z"/>
<path fill="#00C2FF" opacity="1.000000" stroke="none" 
	d="
M541.200195,70.706909 
	C531.476135,65.148567 521.397644,62.358738 510.493439,63.004410 
	C498.073212,63.739853 487.118073,68.043350 477.944824,76.567963 
	C475.994049,78.380730 474.359802,80.599121 472.220184,82.127144 
	C469.534973,84.044762 465.996796,84.441185 464.266388,81.389275 
	C463.224792,79.552284 463.379822,75.613579 464.697327,74.080208 
	C479.476562,56.879280 498.820740,50.040134 520.890625,52.214836 
	C537.447693,53.846317 551.577087,61.663197 562.708313,74.268013 
	C564.868347,76.713989 564.842529,79.532417 562.369568,82.211609 
	C559.595215,85.217331 557.080811,84.044044 554.635376,82.053551 
	C550.186279,78.432182 545.847839,74.674858 541.200195,70.706909 
z"/>
<path fill="#00C2FF" opacity="1.000000" stroke="none" 
	d="
M217.129623,143.028061 
	C214.596542,155.067230 207.110718,162.647385 194.997055,166.727325 
	C190.817642,166.855255 187.409073,167.010849 184.000504,167.166458 
	C177.048706,166.622726 171.445908,163.285309 165.708405,158.312027 
	C187.891983,152.309250 201.795395,138.256470 209.829926,116.536369 
	C212.165558,121.130722 214.501205,125.725075 216.907959,131.112930 
	C217.029266,135.613647 217.079437,139.320847 217.129623,143.028061 
z"/>
<path fill="#2DFF46" opacity="1.000000" stroke="none" 
	d="
M439.555237,58.152100 
	C439.707916,61.627739 441.132874,64.241348 444.920044,65.739792 
	C436.702728,76.844521 428.667938,88.002998 419.753021,98.407333 
	C405.911682,114.561150 389.910400,127.546623 367.364746,128.985382 
	C360.285309,129.437134 353.191559,129.664780 345.707214,129.665588 
	C347.733734,126.603264 350.157471,123.870338 352.581207,121.137405 
	C363.954010,121.251663 375.116455,119.913086 385.447540,114.910088 
	C390.217926,112.599930 394.997955,109.861443 398.940826,106.375275 
	C410.420319,96.225418 420.099792,84.406990 429.025879,71.965584 
	C432.340820,67.345123 435.842407,62.858555 439.555237,58.152100 
z"/>
<path fill="#02ACF8" opacity="1.000000" stroke="none" 
	d="
M276.722473,593.499268 
	C284.540283,591.271484 288.611908,592.855591 292.827179,599.057983 
	C293.630707,600.240295 295.266876,601.401978 296.636047,601.560303 
	C302.561646,602.245728 308.530701,602.555298 314.832245,603.027649 
	C317.629272,595.251465 320.366394,587.613770 323.124207,579.983459 
	C325.429108,573.606384 325.439850,573.610291 333.247070,574.350586 
	C328.881592,586.591919 324.560669,598.708313 320.080139,611.272217 
	C312.349274,610.604370 304.599304,609.829285 296.830902,609.355652 
	C295.332855,609.264404 293.193024,609.897705 292.326477,610.979492 
	C288.923981,615.227417 284.952454,617.722412 279.397736,616.413025 
	C274.448975,615.246460 271.049133,612.173645 270.093292,607.098999 
	C268.991638,601.250183 271.048981,596.635315 276.722473,593.499268 
z"/>
<path fill="#2DFF46" opacity="1.000000" stroke="none" 
	d="
M217.434570,142.893555 
	C217.079437,139.320847 217.029266,135.613647 217.072693,131.453430 
	C228.800217,123.178535 241.189285,116.990707 254.671982,112.941383 
	C270.542450,108.174919 286.345825,107.443657 302.241089,112.627716 
	C303.465302,113.026985 304.746094,113.252708 306.138367,114.159225 
	C301.788239,117.749153 306.286682,120.228043 306.741058,122.936844 
	C298.157043,121.291023 289.636200,118.983421 280.973999,118.156158 
	C268.321259,116.947800 256.293121,120.851936 245.132446,126.201775 
	C235.556274,130.792084 226.837479,137.171082 217.434570,142.893555 
z"/>
<path fill="#00C2FE" opacity="1.000000" stroke="none" 
	d="
M179.001129,292.832336 
	C177.506485,294.136963 176.774658,294.215607 175.445145,292.135925 
	C169.446487,282.752655 163.030853,273.636536 156.970459,264.291229 
	C156.374878,263.372803 156.688385,261.160553 157.430267,260.218475 
	C159.254608,257.901855 161.574905,255.975815 164.265244,253.554688 
	C166.851501,251.599960 168.868271,249.983246 170.885040,248.366547 
	C178.027863,258.871307 185.170685,269.376099 192.821045,280.627289 
	C190.601974,282.507263 188.595703,284.206940 185.958435,286.110168 
	C183.218674,288.486572 181.109894,290.659454 179.001129,292.832336 
z"/>
<path fill="#00C2FF" opacity="1.000000" stroke="none" 
	d="
M199.718277,272.778259 
	C198.039505,274.853058 196.525223,275.838684 194.856445,273.331207 
	C188.152466,263.257996 181.472351,253.168900 174.536285,242.713135 
	C179.589081,238.138428 184.444229,233.742661 189.837158,228.860001 
	C197.012283,239.585983 204.130859,250.227448 211.603424,261.398071 
	C207.609116,265.222748 203.792770,268.877045 199.718277,272.778259 
z"/>
<path fill="#00C2FF" opacity="1.000000" stroke="none" 
	d="
M306.911774,123.258469 
	C306.286682,120.228043 301.788239,117.749153 306.453522,114.440048 
	C310.351593,110.588402 314.072327,107.056061 318.102356,103.230064 
	C323.273376,110.975159 328.686920,118.983017 333.994507,127.060478 
	C339.738922,135.802643 339.744904,135.881317 332.357300,143.081467 
	C329.904572,145.471985 327.128418,147.530685 324.497467,149.743286 
	C318.683838,141.009247 312.883148,132.294678 306.911774,123.258469 
z"/>
<path fill="#00C2FF" opacity="1.000000" stroke="none" 
	d="
M311.752136,162.746964 
	C309.646362,165.110870 307.789825,167.224655 305.726807,169.573532 
	C298.156158,158.225098 291.063904,147.593765 283.952850,136.934250 
	C288.901550,132.129990 293.774628,127.399178 298.914215,122.409637 
	C305.838074,132.777420 312.969452,143.455994 320.434357,154.633926 
	C317.584564,157.291077 314.792938,159.893951 311.752136,162.746964 
z"/>
<path fill="#2DFF46" opacity="1.000000" stroke="none" 
	d="
M171.187851,248.155823 
	C168.868271,249.983246 166.851501,251.599960 164.502945,253.340042 
	C163.447876,242.141190 161.867935,230.785065 162.314087,219.509094 
	C162.593628,212.443542 165.157394,205.163010 168.054214,198.576157 
	C172.682220,188.052963 178.439713,178.026505 183.860077,167.478241 
	C187.409073,167.010849 190.817642,166.855255 194.664307,166.875854 
	C184.289505,182.110840 175.690857,198.427902 171.601089,216.461243 
	C169.703171,224.829865 171.300934,233.993118 171.333450,242.796066 
	C171.339783,244.512589 171.435928,246.228760 171.187851,248.155823 
z"/>
<path fill="#2DFF46" opacity="1.000000" stroke="none" 
	d="
M305.595642,796.004028 
	C304.522186,793.292847 303.888702,790.578247 303.127655,787.515320 
	C319.484924,785.456909 335.965790,783.706665 352.456085,782.050476 
	C364.188538,780.872131 375.933716,779.820251 388.068542,778.674683 
	C388.068542,782.102234 388.068542,784.799011 388.068542,787.515930 
	C376.480286,788.700928 365.224457,789.753906 353.993835,791.028931 
	C343.588379,792.210327 333.222687,793.744873 322.814301,794.896606 
	C317.248840,795.512329 311.630249,795.648193 305.595642,796.004028 
z"/>
<path fill="#2DFF47" opacity="1.000000" stroke="none" 
	d="
M713.513184,790.158691 
	C714.531006,792.726685 715.205261,795.463684 715.841187,798.588379 
	C687.183533,802.778503 660.538696,812.094299 636.210632,828.299927 
	C634.618958,818.511536 634.743774,817.622009 642.729980,813.787598 
	C654.129639,808.314270 665.776306,803.355530 678.067444,798.068787 
	C686.044373,796.546814 693.295410,795.242188 700.484375,793.656250 
	C702.788879,793.147888 704.929199,791.895447 707.144592,790.983398 
	C709.152954,790.764893 711.161255,790.546326 713.513184,790.158691 
z"/>
<path fill="#00C2FF" opacity="1.000000" stroke="none" 
	d="
M539.375610,91.896301 
	C541.251282,95.236427 542.274902,98.581139 538.931396,100.887947 
	C535.723755,103.101021 533.263916,101.680756 530.173889,99.006615 
	C518.393066,88.811111 506.141266,89.891861 495.497528,100.316177 
	C492.439606,103.311096 489.972351,103.659866 487.231445,101.494797 
	C484.248901,99.138878 484.152039,95.776878 486.726562,92.849251 
	C491.715454,87.176125 497.994965,83.673569 505.379333,81.976608 
	C518.435913,78.976143 529.349670,83.194641 539.375610,91.896301 
z"/>
<path fill="#2DFF46" opacity="1.000000" stroke="none" 
	d="
M179.316833,293.009003 
	C181.109894,290.659454 183.218674,288.486572 185.646774,286.262604 
	C195.917923,303.565063 205.644485,321.026672 212.091949,340.108154 
	C204.807449,342.168274 203.689102,341.475830 200.788696,335.531982 
	C193.869186,321.351868 186.700562,307.293335 179.316833,293.009003 
z"/>
<path fill="#01AEFA" opacity="1.000000" stroke="none" 
	d="
M268.950317,344.008850 
	C264.668365,343.277252 260.140320,345.950012 257.153931,341.235321 
	C253.850845,336.020630 254.381653,329.707031 258.858948,325.270508 
	C262.823975,321.341583 269.972382,320.743530 274.506317,323.961426 
	C279.573639,327.557861 281.333435,333.907806 278.738312,339.459625 
	C278.048462,340.935425 277.167999,342.322205 276.231232,344.008850 
	C274.058960,344.008850 271.739685,344.008850 268.950317,344.008850 
z"/>
<path fill="#00C2FF" opacity="1.000000" stroke="none" 
	d="
M510.561157,132.986053 
	C500.759552,128.323288 498.868988,120.337372 505.624115,113.881767 
	C508.963989,110.690056 515.406677,109.839645 519.245483,112.083878 
	C523.019775,114.290398 526.186951,120.640923 524.809875,124.253654 
	C522.943542,129.149933 520.016235,133.778687 513.463257,133.012161 
	C512.645386,132.916504 511.806824,132.997238 510.561157,132.986053 
z"/>
<path fill="#00BFFB" opacity="1.000000" stroke="none" 
	d="
M272.717651,234.771820 
	C279.152863,228.263626 285.331421,222.001480 291.927399,215.316299 
	C294.165894,218.046631 296.081451,220.383072 297.747375,222.414993 
	C288.545074,231.418106 279.459778,240.306747 270.583466,248.990936 
	C268.951355,247.400742 266.628418,245.137497 263.849121,242.429581 
	C266.573395,240.084961 269.517212,237.551422 272.717651,234.771820 
z"/>
<path fill="#00C2FF" opacity="1.000000" stroke="none" 
	d="
M286.250854,166.749237 
	C280.539398,161.184250 275.077972,155.869263 269.852753,150.784164 
	C273.221405,147.271286 276.152039,144.215164 279.462646,140.762787 
	C286.624298,151.468964 293.788025,162.178268 301.125305,173.147003 
	C299.940430,174.418274 298.726562,175.720627 296.467651,178.144180 
	C293.062103,174.336060 289.781464,170.667648 286.250854,166.749237 
z"/>
<path fill="#00C2FF" opacity="1.000000" stroke="none" 
	d="
M162.248230,296.746490 
	C155.293884,289.627014 148.588593,282.757477 142.219070,276.231964 
	C145.474594,273.056641 148.404678,270.198761 151.648865,267.034485 
	C158.559937,277.368744 165.638733,287.953857 172.853226,298.741852 
	C171.468552,300.049896 170.020706,301.417633 168.128708,303.204956 
	C166.260376,301.145172 164.378830,299.070831 162.248230,296.746490 
z"/>
<path fill="#00C2FF" opacity="1.000000" stroke="none" 
	d="
M352.323425,120.875656 
	C350.157471,123.870338 347.733734,126.603264 345.250793,129.657990 
	C344.448151,129.888992 343.299927,130.075226 343.020477,129.666901 
	C335.975067,119.372398 329.021027,109.015404 321.887939,98.427528 
	C323.148651,97.192459 324.325867,96.039223 325.843903,94.552086 
	C334.700012,103.354164 343.382843,111.984039 352.323425,120.875656 
z"/>
<path fill="#00C2FF" opacity="1.000000" stroke="none" 
	d="
M197.290634,228.798355 
	C196.119080,227.202286 195.207016,225.860306 194.112747,224.250229 
	C195.457993,223.036011 196.937134,221.700928 198.597061,220.202652 
	C207.264557,229.274994 216.017349,238.436615 224.664795,247.487976 
	C221.861633,250.250977 219.025330,253.046646 215.442932,256.577698 
	C209.455536,247.367020 203.502838,238.209717 197.290634,228.798355 
z"/>
<path fill="#00C2FF" opacity="1.000000" stroke="none" 
	d="
M853.328735,785.301453 
	C847.741943,786.662659 842.535339,787.902344 837.279907,788.878418 
	C834.252319,789.440674 830.963135,789.460327 830.247498,785.503052 
	C829.503784,781.391113 833.027161,780.698792 835.801819,780.069519 
	C841.810547,778.706604 847.920227,777.793091 853.944580,776.492310 
	C856.783386,775.879333 859.689392,775.295959 860.887573,778.582520 
	C862.227905,782.259216 860.287903,784.365845 855.684448,784.988464 
	C855.027466,785.077271 854.354187,785.045410 853.328735,785.301453 
z"/>
<path fill="#00C2FF" opacity="1.000000" stroke="none" 
	d="
M830.213135,745.032471 
	C827.450867,745.018921 824.982422,745.400085 822.867249,744.705627 
	C822.151062,744.470520 821.546692,740.944153 822.281921,739.939148 
	C823.351685,738.476685 825.583862,737.543335 827.490295,737.073486 
	C833.620911,735.562317 839.807800,734.249756 846.017700,733.102905 
	C848.825500,732.584351 852.345154,732.594788 852.451904,736.325195 
	C852.503357,738.122131 850.147827,741.119873 848.335876,741.628845 
	C842.577087,743.246399 836.561523,743.949707 830.213135,745.032471 
z"/>
<path fill="#00C2FF" opacity="1.000000" stroke="none" 
	d="
M831.824707,722.962769 
	C828.863464,723.532349 826.287292,723.914978 823.817627,724.653870 
	C820.524536,725.639099 818.097534,724.340820 817.304688,721.442383 
	C816.395447,718.118774 818.767578,716.561951 821.880676,715.990173 
	C828.885864,714.703613 835.855896,713.210938 842.884583,712.076965 
	C844.984009,711.738098 847.810242,711.209656 848.010132,714.934631 
	C848.167297,717.864502 847.973816,719.902039 844.021667,720.193726 
	C840.054382,720.486572 836.175049,721.971802 831.824707,722.962769 
z"/>
<path fill="#00C2FF" opacity="1.000000" stroke="none" 
	d="
M776.722412,681.382568 
	C776.007446,678.807861 774.922241,676.537842 775.183289,674.434875 
	C775.418518,672.539246 776.716064,670.001099 778.280884,669.219666 
	C780.860779,667.931458 783.120667,669.663635 783.717041,672.456421 
	C785.267151,679.715942 786.558350,687.030457 788.010132,694.311584 
	C788.618958,697.365112 786.947815,699.639343 784.467468,699.595703 
	C782.705627,699.564575 779.988525,697.362488 779.446106,695.593384 
	C778.082153,691.144165 777.708862,686.391174 776.722412,681.382568 
z"/>
<path fill="#00C2FF" opacity="1.000000" stroke="none" 
	d="
M786.965088,841.184204 
	C785.960022,836.497681 784.659241,832.280884 784.178894,827.972656 
	C784.007080,826.431763 785.439453,823.799561 786.809570,823.202393 
	C789.150879,822.181885 791.875977,823.012451 792.535034,826.071838 
	C794.138306,833.513916 795.755798,840.970459 796.808167,848.499390 
	C797.025879,850.056580 794.816711,851.952881 793.725952,853.692871 
	C792.117249,852.655579 789.727600,851.969604 789.068848,850.504944 
	C787.844177,847.782227 787.628723,844.605530 786.965088,841.184204 
z"/>
<path fill="#00C2FF" opacity="1.000000" stroke="none" 
	d="
M772.003174,836.948975 
	C773.004211,842.941833 774.217896,848.477905 774.822815,854.079651 
	C774.949463,855.252808 772.868530,857.684570 771.741577,857.723816 
	C770.213806,857.777161 767.572021,856.362305 767.235168,855.092590 
	C765.215942,847.482300 763.490784,839.769531 762.256653,831.997437 
	C762.027222,830.552185 764.152344,827.820679 765.770386,827.204468 
	C768.316406,826.234802 770.512756,827.713989 771.000488,830.793152 
	C771.303345,832.705383 771.664368,834.608337 772.003174,836.948975 
z"/>
<path fill="#00C2FF" opacity="1.000000" stroke="none" 
	d="
M749.194031,861.995728 
	C743.269836,860.372864 745.610718,855.102234 744.201477,851.641235 
	C742.517700,847.506104 742.074585,842.856567 741.178284,838.412903 
	C740.506531,835.082336 740.728271,831.450623 744.801086,831.370361 
	C746.495117,831.337036 749.146423,834.499207 749.817139,836.682922 
	C751.616760,842.541931 752.566772,848.660583 753.883972,854.669556 
	C754.877686,859.202759 753.577209,861.470215 749.194031,861.995728 
z"/>
<path fill="#00C2FF" opacity="1.000000" stroke="none" 
	d="
M808.004395,836.920227 
	C807.089233,832.224243 805.809753,827.992188 805.450073,823.683350 
	C805.309326,821.997192 806.893982,819.127136 808.314148,818.651428 
	C809.655334,818.202271 813.087830,819.876099 813.400757,821.154480 
	C815.284851,828.852600 816.689880,836.682861 817.850525,844.528809 
	C818.048645,845.867737 816.294250,847.495483 815.441833,848.989807 
	C813.637451,847.932251 811.065674,847.294067 810.205627,845.720398 
	C808.863403,843.264648 808.681580,840.174683 808.004395,836.920227 
z"/>
<path fill="#00C2FF" opacity="1.000000" stroke="none" 
	d="
M699.782532,807.967957 
	C702.538147,807.305298 704.957581,805.961182 707.156921,806.256409 
	C708.898254,806.490173 711.507263,808.632446 711.641541,810.116272 
	C711.776733,811.609375 709.613953,814.295837 707.963928,814.781921 
	C702.863586,816.284607 697.532837,817.016113 692.280518,817.987671 
	C690.046143,818.400940 687.747742,819.066101 685.547485,818.864197 
	C683.976074,818.720093 682.519714,817.321838 681.011963,816.483276 
	C682.055054,814.665894 682.734436,811.710144 684.207764,811.239441 
	C689.101807,809.675964 694.281372,809.006165 699.782532,807.967957 
z"/>
<path fill="#00C2FF" opacity="1.000000" stroke="none" 
	d="
M689.938965,764.997070 
	C692.854980,764.349670 695.384705,763.090271 697.810608,763.265747 
	C699.605835,763.395630 702.131531,765.038757 702.786560,766.639893 
	C703.810120,769.141968 702.393677,771.384705 699.335632,771.996338 
	C692.847107,773.294189 686.374878,774.674866 679.877258,775.924805 
	C678.595398,776.171509 676.984314,776.439209 675.960754,775.888062 
	C674.439636,775.068909 672.355713,773.588928 672.272644,772.278564 
	C672.187256,770.930847 673.957703,768.613220 675.365601,768.179749 
	C679.969421,766.762085 684.778137,766.009216 689.938965,764.997070 
z"/>
<path fill="#00C2FF" opacity="1.000000" stroke="none" 
	d="
M685.800049,743.966187 
	C688.904358,743.293823 691.594604,742.107605 694.236023,742.207703 
	C695.805115,742.267151 698.064453,744.099915 698.562927,745.613159 
	C698.912903,746.675781 697.085205,749.530945 695.768799,749.888672 
	C688.446411,751.878418 681.001587,753.440979 673.558105,754.949707 
	C670.843750,755.499878 668.676514,754.504639 668.007751,751.434692 
	C667.287109,748.126709 669.277832,747.020874 671.971191,746.504028 
	C676.432312,745.648071 680.900330,744.828369 685.800049,743.966187 
z"/>
<path fill="#00C1FE" opacity="1.000000" stroke="none" 
	d="
M756.994751,694.024902 
	C755.996033,689.179199 754.367493,684.779602 754.262451,680.343994 
	C754.206238,677.973389 756.777710,675.540527 758.163208,673.135742 
	C759.634216,674.778625 761.931335,676.204956 762.428650,678.102966 
	C764.270874,685.132629 765.711792,692.288330 766.816467,699.471619 
	C767.019165,700.789490 765.220337,703.272278 763.851562,703.725342 
	C762.571350,704.149109 759.885315,703.037170 759.154419,701.807068 
	C757.890930,699.680481 757.661743,696.939392 756.994751,694.024902 
z"/>
<path fill="#01C3FC" opacity="1.000000" stroke="none" 
	d="
M707.081909,790.565002 
	C704.929199,791.895447 702.788879,793.147888 700.484375,793.656250 
	C693.295410,795.242188 686.044373,796.546814 678.407959,797.899353 
	C675.644470,791.648010 676.618591,790.126953 683.036926,788.952148 
	C688.896545,787.879700 694.698120,786.484009 700.513611,785.178772 
	C704.748779,784.228149 706.794067,785.756287 707.081909,790.565002 
z"/>
<path fill="#01C3FB" opacity="1.000000" stroke="none" 
	d="
M835.295715,758.101929 
	C840.526978,757.236633 845.363464,756.166016 850.258240,755.600464 
	C852.163574,755.380432 854.200378,756.298584 856.504883,756.844482 
	C858.002502,762.428650 853.931335,763.102417 850.316101,763.960022 
	C845.509460,765.100281 840.646057,766.000732 834.981018,766.991760 
	C829.940369,767.684021 826.613708,766.947021 825.932312,761.914978 
	C828.929626,760.642822 831.926941,759.370667 835.295715,758.101929 
z"/>
<path fill="#02AAF5" opacity="1.000000" stroke="none" 
	d="
M331.535614,343.934631 
	C329.908051,343.304108 328.635468,342.147156 327.503265,342.271210 
	C321.423096,342.937408 315.377838,343.922363 309.320526,344.797272 
	C309.187988,344.241577 309.055481,343.685883 308.922943,343.130219 
	C316.556854,339.046875 324.190796,334.963531 332.312164,330.619446 
	C334.698792,335.039825 336.929199,339.170929 339.536133,343.999359 
	C336.473846,343.999359 334.214630,343.999359 331.535614,343.934631 
z"/>
<path fill="#00C1FE" opacity="1.000000" stroke="none" 
	d="
M735.093262,697.541626 
	C737.134949,694.769897 739.104553,692.383423 741.074097,689.996948 
	C741.532410,690.311646 741.990662,690.626404 742.448914,690.941101 
	C743.297913,694.978271 744.468750,698.986816 744.831848,703.067200 
	C744.970276,704.622925 743.632385,707.246826 742.307129,707.798706 
	C739.638794,708.909912 737.095093,707.766785 736.282227,704.581726 
	C735.724976,702.398376 735.432129,700.147583 735.093262,697.541626 
z"/>
<path fill="#00C2FF" opacity="1.000000" stroke="none" 
	d="
M211.186188,171.684113 
	C209.828964,170.480164 208.707565,169.533997 207.456635,168.478531 
	C210.950150,164.601379 213.915634,161.143204 217.117050,157.919266 
	C217.660004,157.372498 219.756302,157.383224 220.199402,157.915375 
	C221.324417,159.266525 222.998749,162.019730 222.552353,162.521896 
	C219.358673,166.114548 215.691498,169.286575 212.144623,172.559570 
	C212.117142,172.584946 211.672073,172.157776 211.186188,171.684113 
z"/>
<path fill="#2BFD4D" opacity="1.000000" stroke="none" 
	d="
M825.579712,761.958740 
	C826.613708,766.947021 829.940369,767.684021 834.579834,767.069336 
	C830.927307,769.107544 826.849915,771.055725 822.400635,773.066895 
	C821.347229,770.351135 820.665649,767.572327 820.059814,764.384705 
	C821.832764,763.318054 823.529907,762.660278 825.579712,761.958740 
z"/>
<path fill="#00C2FF" opacity="1.000000" stroke="none" 
	d="
M214.376770,227.788208 
	C216.645233,225.105911 219.137939,222.688538 221.653702,220.248795 
	C222.685715,221.316956 223.825684,222.496826 224.950516,223.661026 
	C222.480682,225.810394 220.028030,227.944794 217.150497,230.448959 
	C216.903091,230.216476 215.752045,229.134781 214.376770,227.788208 
z"/>
<path fill="#00C2FF" opacity="1.000000" stroke="none" 
	d="
M275.198669,175.301575 
	C273.327667,177.770538 271.691681,176.965164 270.838348,175.123444 
	C270.453217,174.292236 271.217590,172.568069 271.958069,171.650681 
	C273.503357,169.736145 275.379517,168.088638 277.234558,166.215485 
	C278.262604,167.463135 279.246857,168.657684 280.709961,170.433350 
	C279.341156,171.630356 277.393066,173.333893 275.198669,175.301575 
z"/>

<path fill="#00C2FF" opacity="1.000000" stroke="none" 
	d="
M195.054642,776.581177 
	C197.701523,778.963440 199.998352,781.318665 197.880768,784.618286 
	C196.917038,786.119995 194.932419,787.582458 193.215988,787.860779 
	C189.266373,788.501221 185.510101,785.644287 186.149994,782.511169 
	C186.832108,779.171326 188.469330,775.933777 192.851089,776.015015 
	C193.499878,776.026978 194.145721,776.197144 195.054642,776.581177 
z"/>
<path fill="#00C2FF" opacity="1.000000" stroke="none" 
	d="
M204.721375,729.002075 
	C208.649033,729.970703 210.853806,732.632263 209.363602,735.746948 
	C208.279388,738.013062 204.612030,740.783264 202.636063,740.416992 
	C200.450714,740.011963 197.459137,736.337219 197.379517,733.999268 
	C197.263733,730.598938 200.234772,728.273865 204.721375,729.002075 
z"/>
<path fill="#00C2FF" opacity="1.000000" stroke="none" 
	d="
M786.565369,723.752808 
	C788.810547,723.191345 790.675842,722.822815 792.881042,722.387146 
	C795.237366,733.837036 797.612732,745.397034 799.996155,756.955322 
	C802.220154,767.740479 804.441040,778.526245 806.688660,789.306458 
	C807.388184,792.661560 807.181824,794.355225 802.737671,795.194641 
	C782.220032,799.069641 761.830322,803.620972 741.385498,807.885376 
	C739.817200,808.212463 738.176880,808.194824 735.905334,808.396362 
	C734.669800,802.563965 733.288086,796.282654 732.014099,789.979675 
	C728.868164,774.415344 725.851868,758.824341 722.601868,743.282043 
	C721.729004,739.107727 721.049316,736.757996 727.086182,735.702087 
	C746.055603,732.383972 764.835083,727.981262 783.693970,724.026245 
	C784.494873,723.858337 785.353699,723.966370 786.565369,723.752808 
M738.799500,745.048401 
	C737.931152,745.485107 736.944885,745.779602 736.215698,746.384155 
	C733.546692,748.597168 731.289551,751.008423 734.143555,754.626770 
	C737.353210,758.695923 740.000732,759.276611 743.487976,756.001099 
	C744.876099,754.697144 746.366699,751.549194 745.728394,750.449707 
	C744.423401,748.201965 741.708557,746.772766 738.799500,745.048401 
z"/>
<path fill="#00C2FF" opacity="1.000000" stroke="none" 
	d="
M219.730820,690.615845 
	C216.744614,693.317139 213.445862,694.123291 210.722000,691.674133 
	C209.343124,690.434265 208.703247,687.473999 208.991318,685.473328 
	C209.524902,681.767700 213.251053,679.865723 216.608185,681.319458 
	C219.764145,682.686157 222.265747,684.744324 220.074448,688.803894 
	C219.859406,689.202332 219.975937,689.779663 219.730820,690.615845 
z"/>

</svg>