<svg width="985" height="970" viewBox="0 0 985 970" fill="none" xmlns="http://www.w3.org/2000/svg">
<path d="M692.929 749.662C691.182 741 696.788 732.562 705.45 730.815L771.319 717.528C779.982 715.781 788.42 721.387 790.167 730.049L809.742 827.094C811.489 835.756 805.884 844.195 797.221 845.942L731.352 859.228C722.69 860.976 714.251 855.37 712.504 846.708L692.929 749.662Z" fill="#D9D9D9"/>
<path d="M740.627 805.301C731.971 807.079 723.513 801.503 721.735 792.847L708.218 727.024C706.441 718.368 712.017 709.91 720.673 708.133L817.649 688.218C826.305 686.441 834.763 692.017 836.541 700.673L850.057 766.496C851.835 775.152 846.259 783.61 837.603 785.387L740.627 805.301Z" fill="#D9D9D9"/>
<path d="M259.39 193.88C253.084 200.07 242.954 199.975 236.764 193.669L221.208 177.82C215.018 171.514 215.112 161.384 221.419 155.194L296.796 81.2078C303.102 75.0179 313.233 75.1123 319.422 81.4186L334.978 97.2671C341.168 103.573 341.074 113.704 334.768 119.894L259.39 193.88Z" fill="#D9D9D9"/>
<path d="M158.39 292.88C152.084 299.07 141.954 298.975 135.764 292.669L120.208 276.82C114.018 270.514 114.112 260.384 120.419 254.194L195.796 180.208C202.102 174.018 212.233 174.112 218.422 180.419L233.978 196.267C240.168 202.573 240.074 212.704 233.768 218.894L158.39 292.88Z" fill="#D9D9D9"/>
<path d="M668.449 818.509C659.759 820.111 651.415 814.365 649.814 805.674L637.633 739.591C636.031 730.901 641.777 722.558 650.468 720.956L747.828 703.01C756.518 701.409 764.861 707.155 766.463 715.845L778.643 781.928C780.245 790.618 774.499 798.962 765.809 800.564L668.449 818.509Z" fill="#D9D9D9"/>
<path d="M856.956 202.367C855.18 211.023 846.724 216.601 838.068 214.826L716.136 189.818C707.48 188.042 701.901 179.585 703.677 170.929L723.568 73.948C725.343 65.2916 733.8 59.7135 742.456 61.489L864.388 86.4975C873.044 88.2729 878.622 96.7295 876.847 105.386L856.956 202.367Z" fill="#D9D9D9"/>
<path d="M291.264 814.562C289.284 823.174 280.697 828.55 272.086 826.57L144.593 797.254C135.981 795.273 130.606 786.687 132.586 778.075L154.771 681.593C156.751 672.981 165.338 667.605 173.95 669.585L301.442 698.901C310.054 700.882 315.43 709.468 313.45 718.08L291.264 814.562Z" fill="#D9D9D9"/>
<path d="M595 94C595 145.915 548.885 188 492 188C435.115 188 389 145.915 389 94C389 42.0852 435.115 0 492 0C548.885 0 595 42.0852 595 94Z" fill="#D9D9D9"/>
<path d="M188.308 100C191.676 103.368 194.399 107.315 196.322 111.615C198.245 115.916 199.33 120.485 199.515 125.063C199.7 129.641 198.982 134.138 197.401 138.297C195.82 142.455 193.407 146.195 190.301 149.301C187.195 152.407 183.455 154.82 179.297 156.401C175.138 157.982 170.641 158.7 166.063 158.515C161.485 158.33 156.916 157.245 152.615 155.322C148.315 153.399 144.368 150.676 141 147.308C141 147.308 161.564 141.198 171.881 130.881C182.198 120.564 188.308 100 188.308 100Z" fill="#D9D9D9"/>
<path d="M0 349C0 340.163 7.16344 333 16 333H969C977.837 333 985 340.163 985 349V544C985 552.837 977.837 560 969 560H16C7.16343 560 0 552.837 0 544V349Z" fill="#D9D9D9"/>
<path d="M808.484 339H969C977.837 339 985 346.163 985 355V551H0V355C0 346.163 7.16344 339 16 339H170.516C218.05 208.883 342.928 116 489.5 116C636.072 116 760.95 208.883 808.484 339Z" fill="#D9D9D9"/>
<path d="M170.516 572C202.178 658.669 268.154 728.818 352 766.002V833C352 841.837 359.163 849 368 849H370V925C370 933.837 377.163 941 386 941H405V954C405 962.837 412.163 970 421 970H560C568.837 970 576 962.837 576 954V941H593C601.837 941 609 933.837 609 925V849H613C621.837 849 629 841.837 629 833V765.108C711.894 727.699 777.074 657.978 808.484 572H170.516Z" fill="#D9D9D9"/>
<path d="M0 551C0 546.029 4.02944 542 9 542H976C980.971 542 985 546.029 985 551C985 555.971 980.971 560 976 560H8.99998C4.02942 560 0 555.971 0 551Z" fill="#D9D9D9"/>
<path d="M830 455C830 642.777 677.777 795 490 795C302.223 795 150 642.777 150 455C150 267.223 302.223 115 490 115C677.777 115 830 267.223 830 455Z" fill="#D9D9D9"/>
<path d="M244 642.5C244 717.335 214.003 778 177 778C139.997 778 110 717.335 110 642.5C110 567.665 139.997 507 177 507C214.003 507 244 567.665 244 642.5Z" fill="#D9D9D9"/>
<path d="M265.689 656.795L381.169 645.828L394.311 784.205L278.831 795.172L265.689 656.795Z" fill="#D9D9D9"/>
<path d="M916 601C916 684.395 879.063 752 833.5 752C787.937 752 751 684.395 751 601C751 517.605 787.937 450 833.5 450C879.063 450 916 517.605 916 601Z" fill="#D9D9D9"/>
<path d="M814 681C814 710.823 778.407 735 734.5 735C690.593 735 655 710.823 655 681C655 651.177 690.593 627 734.5 627C778.407 627 814 651.177 814 681Z" fill="#D9D9D9"/>
<path d="M723.403 790.614C716.669 774.941 702.52 763.229 684.06 758.033C665.601 752.837 644.349 754.6 624.977 762.923C605.605 771.247 589.699 785.451 580.763 802.419C571.826 819.387 570.584 837.712 577.318 853.385C577.318 853.385 608.233 823.459 645.427 808.041C682.62 792.623 723.403 790.614 723.403 790.614Z" fill="#D9D9D9"/>
<path d="M880 267C880 323.333 858.062 369 831 369C803.938 369 782 323.333 782 267C782 210.667 803.938 165 831 165C858.062 165 880 210.667 880 267Z" fill="#D9D9D9"/>
<path d="M880 267C880 323.333 858.062 369 831 369C803.938 369 782 323.333 782 267C782 210.667 803.938 165 831 165C858.062 165 880 210.667 880 267Z" fill="#D9D9D9"/>
<path d="M753.486 100.344C749.672 111.877 743.574 122.529 735.542 131.693C727.509 140.857 717.698 148.353 706.67 153.753C695.642 159.152 683.612 162.35 671.266 163.164C658.921 163.977 646.503 162.39 634.721 158.494C622.939 154.597 612.023 148.467 602.597 140.454C593.171 132.44 585.42 122.701 579.785 111.79C574.151 100.88 570.744 89.0129 569.759 76.8667C568.774 64.7205 570.23 52.533 574.044 41C574.044 41 623.5 99.8436 653.5 107.178C683.5 114.512 753.486 100.344 753.486 100.344Z" fill="#D9D9D9"/>
<path d="M389 220.5C389 290.916 332.364 348 262.5 348C192.636 348 136 290.916 136 220.5C136 150.084 192.636 93 262.5 93C332.364 93 389 150.084 389 220.5Z" fill="#D9D9D9"/>
<path d="M578 116H809V326H578V116Z" fill="#D9D9D9"/>
<path d="M144.175 265.865C150.436 263.676 157.061 262.73 163.674 263.08C170.287 263.43 176.758 265.069 182.717 267.905C188.676 270.74 194.006 274.715 198.404 279.604C202.801 284.493 206.18 290.2 208.347 296.398C210.514 302.596 211.427 309.165 211.033 315.729C210.639 322.293 208.947 328.723 206.053 334.654C203.158 340.584 199.118 345.898 194.164 350.292C189.21 354.686 183.437 358.074 177.177 360.262C177.177 360.262 170.626 324.612 165.192 309.351C159.758 294.089 144.175 265.865 144.175 265.865Z" fill="#D9D9D9"/>
<path d="M394 65C397.285 70.761 407.347 71.3314 408.199 77.8986C409.051 84.4657 408.61 91.1261 406.899 97.4996C405.189 103.873 402.243 109.835 398.23 115.044C394.218 120.254 389.217 124.609 383.513 127.862C377.809 131.114 371.514 133.2 364.987 134C358.46 134.8 351.829 134.299 345.473 132.525C339.117 130.752 333.16 127.74 327.942 123.662C322.724 119.584 318.348 114.52 315.063 108.759C315.063 108.759 354.372 105.605 368.399 97.4996C382.425 89.3945 394 65 394 65Z" fill="#D9D9D9"/>
<path d="M350 115H406V149H350V115Z" fill="#D9D9D9"/>
</svg>
